<svg width="40" height="40" viewBox="0 0 40 40" fill="none" xmlns="http://www.w3.org/2000/svg">
<path d="M2.045 0C1.50304 0.00132025 0.983651 0.217199 0.600425 0.600425C0.217199 0.983651 0.00132025 1.50304 0 2.045L0 14.8625C0 16.315 1.185 17.5 2.6375 17.5H14.8675C16.3175 17.5 17.5 16.315 17.5 14.8625V2.045C17.4987 1.50304 17.2828 0.983651 16.8996 0.600425C16.5163 0.217199 15.997 0.00132025 15.455 0L2.045 0ZM2.5 2.5H15V5H2.5V2.5ZM20 2.5V5H29.135C29.6125 5 30 5.3875 30 5.865V7.675C29.7175 7.6 29.44 7.5 29.135 7.5H20V10H29.135C29.6125 10 30 10.3875 30 10.865V17.5H25.865C24.0125 17.5 22.5 19.0125 22.5 20.865V29.14C22.5 30.99 24.0125 32.5 25.865 32.5H30V35H27.5V37.5H35V35H32.5V32.5H36.635C38.4875 32.5 40 30.9875 40 29.135V20.865C40 19.0125 38.4875 17.5 36.635 17.5H32.5V5.865C32.5 4.0125 30.9875 2.5 29.135 2.5H20ZM2.5 7.5H15V10H2.5V7.5ZM2.5 12.5H15V15H2.5V12.5ZM25.865 20H36.64C37.115 20 37.5 20.3875 37.5 20.865V29.14C37.5 29.615 37.1125 30 36.635 30H25.86C25.7467 29.9997 25.6346 29.977 25.5301 29.9334C25.4256 29.8897 25.3307 29.8259 25.2509 29.7456C25.171 29.6653 25.1077 29.57 25.0647 29.4653C25.0217 29.3605 24.9997 29.2483 25 29.135V20.865C25 20.3875 25.3875 20 25.865 20Z" fill="#24304C"/>
</svg>
