<svg width="40" height="40" viewBox="0 0 40 40" fill="none" xmlns="http://www.w3.org/2000/svg">
<path d="M37.9419 2.05798C37.8523 1.96834 37.7375 1.90808 37.6128 1.8852C37.4881 1.86231 37.3594 1.87789 37.2438 1.92985L30.6082 4.9161C30.5465 4.94503 30.4901 4.98412 30.4413 5.03173C30.4357 5.03673 30.4282 5.0386 30.4226 5.04423L28.4069 7.06235L25.0376 10.4249L25.3876 6.5936C25.3938 6.5311 25.4001 6.46235 25.4001 6.3936C25.3987 5.87509 25.204 5.37573 24.8541 4.99309C24.5041 4.61045 24.0241 4.37201 23.5078 4.32436C22.9915 4.27671 22.476 4.42328 22.0619 4.73542C21.6479 5.04756 21.3651 5.50286 21.2688 6.01235L20.5313 9.9561L20.4313 8.44985C20.4271 8.36781 20.4064 8.28745 20.3706 8.21352C20.3348 8.13959 20.2845 8.07359 20.2227 8.01941C20.161 7.96523 20.089 7.92397 20.011 7.89807C19.9331 7.87217 19.8507 7.86215 19.7688 7.8686C19.6041 7.87984 19.4505 7.95583 19.3415 8.07996C19.2326 8.20409 19.1773 8.36628 19.1876 8.5311L19.6063 15.0124C19.6116 15.1194 19.645 15.2231 19.7032 15.3131C19.7613 15.403 19.8422 15.4761 19.9376 15.5249C20.016 15.5693 20.1038 15.595 20.1938 15.5999C20.3463 15.6096 20.497 15.5627 20.617 15.4681C20.737 15.3735 20.8178 15.2379 20.8438 15.0874L20.9501 14.5124L22.4938 6.2436C22.5329 6.04002 22.6462 5.85823 22.8118 5.73353C22.9774 5.60883 23.1834 5.55013 23.3898 5.56883C23.5963 5.58753 23.7884 5.68229 23.9289 5.83471C24.0694 5.98712 24.1482 6.18632 24.1501 6.3936C24.1501 6.4186 24.1438 6.43735 24.1438 6.47485L23.6626 11.8061L23.4876 13.7499L23.2063 16.8436C23.2001 16.8892 23.2001 16.9355 23.2063 16.9811L23.5126 19.2561L23.7188 20.8124L23.9563 22.5624C23.9713 22.6844 24.0221 22.7994 24.1021 22.8928C24.1822 22.9861 24.288 23.0538 24.4063 23.0874C24.5246 23.1182 24.6492 23.1146 24.7655 23.077C24.8818 23.0393 24.9848 22.9692 25.0626 22.8749L27.5251 19.7811C28.1091 19.0542 28.9182 18.5419 29.8251 18.3249C29.9563 18.2936 30.0876 18.2686 30.2188 18.2499L31.0751 18.1374C31.5546 18.0704 32.0427 18.165 32.4626 18.4061L29.3876 21.0311C28.7553 21.5702 28.2532 22.2454 27.9188 23.0061L27.0126 25.0499C26.8103 25.5058 26.5383 25.9275 26.2063 26.2999L24.8313 27.8436C24.7506 27.9334 24.6978 28.0447 24.6793 28.164C24.6609 28.2832 24.6775 28.4053 24.7272 28.5153C24.7769 28.6253 24.8575 28.7185 24.9592 28.7834C25.0609 28.8484 25.1794 28.8823 25.3001 28.8811C25.3874 28.8816 25.4738 28.8635 25.5536 28.828C25.6334 28.7924 25.7046 28.7402 25.7626 28.6749L27.1376 27.1374C27.5575 26.6666 27.9012 26.133 28.1563 25.5561L29.0626 23.5124C29.3204 22.9221 29.7094 22.3984 30.2001 21.9811L33.6313 19.0499C33.729 18.9679 33.8076 18.8656 33.8615 18.75C33.9155 18.6345 33.9436 18.5086 33.9438 18.3811C33.9431 18.2576 33.916 18.1357 33.8643 18.0236C33.8125 17.9115 33.7374 17.8117 33.6438 17.7311C33.2758 17.4031 32.8411 17.159 32.3695 17.0155C31.8979 16.8719 31.4009 16.8325 30.9126 16.8999L30.0501 17.0124C29.8834 17.0374 29.7147 17.0686 29.5438 17.1061C28.3622 17.3848 27.3081 18.0515 26.5501 18.9999L25.0001 20.9436L24.8313 19.6999L31.9763 12.5549L31.9838 12.5499L34.9563 9.57798C34.9613 9.57235 34.9632 9.56485 34.9682 9.55923C35.0158 9.51032 35.0551 9.45395 35.0844 9.39235L38.0701 2.7561C38.122 2.64047 38.1376 2.51177 38.1147 2.38709C38.0918 2.2624 38.0316 2.14762 37.9419 2.05798ZM30.8638 6.37048L33.6301 9.13673L31.5419 11.2249L28.7757 8.4586L30.8638 6.37048ZM34.3163 8.05423L31.9469 5.68735L34.6551 4.4686L35.5344 5.3486L34.3163 8.05423ZM24.6251 18.1436L24.4563 16.8811L24.8626 12.3686L27.8907 9.34048L30.6594 12.1092L24.6251 18.1436ZM7.05007 16.8249C7.08248 17.0777 7.09918 17.3324 7.10007 17.5874C7.10007 17.6999 7.10007 17.8124 7.09382 17.9186L7.07507 18.2061C7.06913 18.2879 7.07951 18.3701 7.10561 18.4478C7.13171 18.5255 7.173 18.5973 7.22708 18.659C7.28117 18.7206 7.34697 18.7709 7.42066 18.8069C7.49434 18.8429 7.57445 18.8638 7.65632 18.8686C7.6703 18.8737 7.68521 18.8759 7.70007 18.8749C7.85845 18.8736 8.01043 18.8122 8.12529 18.7031C8.24015 18.5941 8.30932 18.4455 8.31882 18.2874L8.33757 17.9999C8.35007 17.8624 8.35007 17.7249 8.35007 17.5874C8.35206 17.2714 8.32907 16.9559 8.28132 16.6436L7.31882 10.0499C7.31158 10.017 7.3074 9.9835 7.30632 9.94985C7.30651 9.77866 7.36802 9.61319 7.47969 9.48343C7.59137 9.35367 7.74583 9.26821 7.91508 9.24252C8.08434 9.21683 8.2572 9.25261 8.40235 9.34339C8.5475 9.43416 8.65534 9.57392 8.70632 9.73735L10.7688 16.3374C10.8155 16.4802 10.9122 16.6014 11.041 16.6788C11.1698 16.7561 11.3222 16.7845 11.4702 16.7587C11.6182 16.7329 11.752 16.6546 11.847 16.5382C11.942 16.4218 11.9919 16.2751 11.9876 16.1249L11.5876 5.87485C11.5887 5.69098 11.6578 5.51403 11.7815 5.37799C11.9052 5.24194 12.0748 5.1564 12.2577 5.1378C12.4407 5.1192 12.624 5.16884 12.7726 5.2772C12.9211 5.38556 13.0244 5.54498 13.0626 5.72485L15.0251 15.0374C15.0551 15.1862 15.1382 15.319 15.259 15.411C15.3797 15.503 15.5299 15.5479 15.6813 15.5374C15.8313 15.525 15.9721 15.4598 16.0785 15.3533C16.185 15.2469 16.2502 15.1061 16.2626 14.9561L16.2751 14.7499V14.7436L17.0563 3.9811C17.072 3.74762 17.176 3.52887 17.3473 3.36934C17.5185 3.2098 17.744 3.12145 17.978 3.12225C18.212 3.12305 18.4369 3.21293 18.6071 3.37362C18.7772 3.53432 18.8797 3.75376 18.8938 3.98735L18.9876 5.41235C18.9867 5.49842 19.0035 5.58374 19.0371 5.66298C19.0707 5.74223 19.1203 5.81367 19.1828 5.87285C19.2453 5.93203 19.3194 5.97766 19.4003 6.00689C19.4813 6.03611 19.5674 6.0483 19.6533 6.04269C19.7392 6.03708 19.823 6.01379 19.8994 5.97428C19.9759 5.93477 20.0434 5.87989 20.0976 5.81309C20.1519 5.74628 20.1918 5.66899 20.2148 5.58605C20.2378 5.50311 20.2434 5.41632 20.2313 5.3311L20.1376 3.9061C20.1027 3.35696 19.8606 2.84156 19.4602 2.46414C19.0598 2.08672 18.5309 1.87545 17.9807 1.87307C17.4305 1.87069 16.8998 2.07737 16.4962 2.4513C16.0925 2.82524 15.8459 3.33853 15.8063 3.88735L15.3313 10.4374L14.2876 5.4686C14.1863 4.98562 13.9097 4.55728 13.5112 4.26623C13.1127 3.97518 12.6205 3.84205 12.1296 3.89254C11.6387 3.94303 11.1839 4.17355 10.853 4.53962C10.522 4.90569 10.3384 5.38137 10.3376 5.87485C10.3376 5.88735 10.3438 5.9436 10.3438 5.9561L10.5563 11.4749L9.90007 9.36235C9.75876 8.91464 9.462 8.53221 9.0634 8.28415C8.6648 8.03608 8.19064 7.93872 7.72654 8.00966C7.26245 8.08059 6.83901 8.31514 6.53271 8.67095C6.22642 9.02676 6.05745 9.48037 6.05632 9.94985C6.05871 10.0461 6.06706 10.1421 6.08132 10.2374L7.05007 16.8249ZM22.7313 30.2186C22.2129 30.8949 21.8342 31.6676 21.6175 32.4917C21.4007 33.3158 21.3502 34.1748 21.4688 35.0186L21.7376 36.8749H11.0063L11.5938 34.1186C11.6835 33.6847 11.7295 33.2429 11.7313 32.7999C11.7342 32.2725 11.6669 31.747 11.5313 31.2374C11.4426 30.8839 11.3234 30.5389 11.1751 30.2061L9.90007 27.3374L9.35007 26.1124L9.03757 25.4061C8.46908 24.1331 8.16909 22.7565 8.15632 21.3624C8.15792 21.2796 8.14258 21.1974 8.11126 21.1208C8.07994 21.0441 8.0333 20.9747 7.97418 20.9168C7.91507 20.8588 7.84474 20.8136 7.76751 20.7838C7.69028 20.754 7.60778 20.7403 7.52507 20.7436C7.44299 20.7444 7.36188 20.7614 7.28636 20.7936C7.21085 20.8257 7.14241 20.8725 7.08495 20.9311C7.02749 20.9897 6.98214 21.059 6.9515 21.1352C6.92085 21.2113 6.9055 21.2928 6.90632 21.3749C6.92145 22.9417 7.25976 24.4885 7.90007 25.9186L10.0376 30.7124C10.0463 30.7317 10.0501 30.7517 10.0582 30.7711L7.7782 28.4911C7.66099 28.3739 7.50205 28.3081 7.33632 28.3081C7.17059 28.3081 7.01165 28.3739 6.89445 28.4911L3.92195 31.4636C3.85996 31.5272 3.81223 31.6033 3.78195 31.6867L2.41257 33.0561C2.24215 33.2263 2.10696 33.4285 2.01472 33.651C1.92248 33.8736 1.875 34.1121 1.875 34.353C1.875 34.5939 1.92248 34.8324 2.01472 35.0549C2.10696 35.2774 2.24215 35.4796 2.41257 35.6499L4.35007 37.5874C4.52032 37.7578 4.72248 37.893 4.94501 37.9852C5.16753 38.0774 5.40606 38.1249 5.64694 38.1249C5.88783 38.1249 6.12636 38.0774 6.34888 37.9852C6.57141 37.893 6.77357 37.7578 6.94382 37.5874L8.31257 36.2174C8.39567 36.187 8.47132 36.1393 8.53444 36.0774L10.2644 34.3467L9.62507 37.3686C9.60567 37.4599 9.60682 37.5544 9.62844 37.6452C9.65006 37.736 9.69161 37.8208 9.75007 37.8936C9.80953 37.9654 9.88399 38.0233 9.9682 38.0632C10.0524 38.1032 10.1444 38.1242 10.2376 38.1249H22.4626C22.5528 38.1244 22.6418 38.1047 22.7238 38.0669C22.8057 38.0292 22.8786 37.9744 22.9376 37.9061C22.9954 37.8388 23.0381 37.76 23.0629 37.6748C23.0877 37.5896 23.094 37.5001 23.0813 37.4124L22.7063 34.8374C22.6708 34.5932 22.6541 34.3466 22.6563 34.0999C22.6576 32.9717 23.031 31.8754 23.7188 30.9811C23.775 30.9169 23.8175 30.8419 23.8436 30.7607C23.8697 30.6794 23.8789 30.5937 23.8707 30.5088C23.8624 30.4239 23.8368 30.3416 23.7956 30.2669C23.7543 30.1922 23.6981 30.1268 23.6306 30.0747C23.5631 30.0225 23.4856 29.9848 23.4029 29.9637C23.3202 29.9426 23.2341 29.9387 23.1498 29.9522C23.0656 29.9657 22.985 29.9963 22.913 30.0421C22.841 30.0879 22.7792 30.148 22.7313 30.2186ZM10.1438 32.6249L8.0557 34.713L5.28694 31.9442L7.37507 29.8561L10.1438 32.6249ZM6.06257 36.7061C5.95107 36.8115 5.80348 36.8702 5.65007 36.8702C5.49667 36.8702 5.34907 36.8115 5.23757 36.7061L3.29382 34.7624C3.18546 34.6524 3.12482 34.5042 3.12507 34.3498C3.12601 34.1957 3.18647 34.0479 3.29382 33.9374L4.40257 32.828L7.17195 35.5967L6.06257 36.7061Z" fill="#24304C"/>
<path d="M17.7072 30.3281H15.7772C15.6114 30.3281 15.4525 30.2623 15.3352 30.1451C15.218 30.0279 15.1522 29.8689 15.1522 29.7031V28.9956C14.8901 28.9106 14.6353 28.8047 14.3903 28.6788L13.8903 29.1788C13.7731 29.2959 13.6142 29.3617 13.4484 29.3617C13.2827 29.3617 13.1238 29.2959 13.0066 29.1788L11.6403 27.8131C11.5231 27.6959 11.4573 27.537 11.4573 27.3713C11.4573 27.2055 11.5231 27.0466 11.6403 26.9294L12.1403 26.4294C12.0144 26.1843 11.9084 25.9296 11.8234 25.6675H11.1172C10.9514 25.6675 10.7925 25.6017 10.6752 25.4844C10.558 25.3672 10.4922 25.2083 10.4922 25.0425V23.1131C10.4922 22.9474 10.558 22.7884 10.6752 22.6712C10.7925 22.554 10.9514 22.4881 11.1172 22.4881H11.8247C11.9098 22.2261 12.0158 21.9713 12.1416 21.7263L11.6416 21.2263C11.5244 21.109 11.4586 20.9501 11.4586 20.7844C11.4586 20.6187 11.5244 20.4597 11.6416 20.3425L13.0066 18.9775C13.1238 18.8603 13.2827 18.7945 13.4484 18.7945C13.6142 18.7945 13.7731 18.8603 13.8903 18.9775L14.3903 19.4775C14.6351 19.3511 14.8899 19.2451 15.1522 19.1606V18.4531C15.1522 18.2874 15.218 18.1284 15.3352 18.0112C15.4525 17.894 15.6114 17.8281 15.7772 17.8281C15.9446 17.8276 16.1055 17.8928 16.2253 18.0097C16.3451 18.1266 16.4142 18.2858 16.4178 18.4531C16.4181 18.5023 16.4128 18.5514 16.4022 18.5994V19.6394C16.4021 19.7822 16.3531 19.9207 16.2634 20.0318C16.1737 20.1428 16.0486 20.2199 15.9091 20.25C15.4525 20.3493 15.0177 20.5301 14.6253 20.7838C14.5052 20.8611 14.3622 20.895 14.2202 20.8797C14.0782 20.8645 13.9456 20.8011 13.8447 20.7L13.4472 20.3019L12.9659 20.7831L13.3641 21.1813C13.465 21.2823 13.5284 21.4149 13.5435 21.5569C13.5586 21.6989 13.5246 21.8419 13.4472 21.9619C13.1936 22.354 13.013 22.7887 12.9141 23.245C12.8839 23.3847 12.8068 23.5098 12.6956 23.5996C12.5843 23.6893 12.4457 23.7382 12.3028 23.7381H11.7403V24.4181H12.3028C12.4457 24.4181 12.5843 24.467 12.6956 24.5567C12.8068 24.6464 12.8839 24.7716 12.9141 24.9113C13.013 25.3679 13.1939 25.8028 13.4478 26.195C13.5252 26.3151 13.559 26.4581 13.5438 26.6001C13.5286 26.7421 13.4651 26.8747 13.3641 26.9756L12.9659 27.3731L13.4472 27.8544L13.8447 27.4563C13.9459 27.3561 14.0783 27.2936 14.2199 27.2789C14.3615 27.2642 14.5039 27.2984 14.6234 27.3756C15.0159 27.6296 15.451 27.8106 15.9078 27.91C16.0473 27.9403 16.1722 28.0173 16.2618 28.1284C16.3514 28.2395 16.4003 28.3779 16.4003 28.5206V29.0831H17.0803V28.5206C17.0803 28.3779 17.1292 28.2395 17.2188 28.1284C17.3084 28.0173 17.4333 27.9403 17.5728 27.91C18.0293 27.8107 18.4642 27.6299 18.8566 27.3763C18.9766 27.2988 19.1195 27.2648 19.2616 27.28C19.4036 27.2951 19.5362 27.3584 19.6372 27.4594L20.0353 27.8575L20.5159 27.3763L20.1178 26.9788C20.0168 26.8777 19.9535 26.7452 19.9384 26.6031C19.9233 26.4611 19.9573 26.3182 20.0347 26.1981C20.2882 25.8054 20.4692 25.3704 20.5691 24.9138C20.5993 24.7743 20.6764 24.6494 20.7875 24.5598C20.8986 24.4702 21.037 24.4213 21.1797 24.4213H21.7422V23.7381H21.1797C21.037 23.7381 20.8986 23.6892 20.7875 23.5996C20.6764 23.51 20.5993 23.3851 20.5691 23.2456C20.4693 22.7891 20.2883 22.3543 20.0347 21.9619C19.9573 21.8419 19.9233 21.6989 19.9384 21.5569C19.9535 21.4149 20.0168 21.2823 20.1178 21.1813L20.5159 20.7831L20.0353 20.3019L19.6372 20.7C19.5362 20.8011 19.4037 20.8645 19.2617 20.8797C19.1196 20.895 18.9767 20.8611 18.8566 20.7838C18.4743 20.536 18.051 20.3581 17.6066 20.2581C17.4448 20.2216 17.3041 20.1223 17.2156 19.982C17.127 19.8418 17.0978 19.6721 17.1344 19.5103C17.1709 19.3485 17.2702 19.2079 17.4105 19.1193C17.5507 19.0308 17.7204 19.0016 17.8822 19.0381C18.3017 19.1327 18.7076 19.2797 19.0903 19.4756L19.5903 18.9756C19.6484 18.9175 19.7173 18.8714 19.7932 18.84C19.869 18.8085 19.9504 18.7923 20.0325 18.7923C20.1146 18.7923 20.196 18.8085 20.2718 18.84C20.3477 18.8714 20.4166 18.9175 20.4747 18.9756L21.8391 20.3406C21.9562 20.4578 22.0221 20.6168 22.0221 20.7825C22.0221 20.9482 21.9562 21.1072 21.8391 21.2244L21.3391 21.7244C21.4652 21.9693 21.5712 22.2241 21.6559 22.4863H22.3672C22.5329 22.4863 22.6919 22.5521 22.8091 22.6693C22.9263 22.7865 22.9922 22.9455 22.9922 23.1113V25.0413C22.9922 25.207 22.9263 25.366 22.8091 25.4832C22.6919 25.6004 22.5329 25.6663 22.3672 25.6663H21.6591C21.5743 25.9284 21.4684 26.1832 21.3422 26.4281L21.8422 26.9281C21.9594 27.0453 22.0252 27.2043 22.0252 27.37C22.0252 27.5357 21.9594 27.6947 21.8422 27.8119L20.4778 29.1769C20.4198 29.235 20.3508 29.2811 20.275 29.3125C20.1991 29.344 20.1178 29.3602 20.0356 29.3602C19.9535 29.3602 19.8722 29.344 19.7963 29.3125C19.7204 29.2811 19.6515 29.235 19.5934 29.1769L19.0934 28.6769C18.8486 28.8028 18.594 28.9088 18.3322 28.9938V29.7013C18.3324 29.7835 18.3164 29.865 18.2852 29.941C18.2539 30.0171 18.2079 30.0862 18.1498 30.1444C18.0917 30.2026 18.0227 30.2488 17.9468 30.2804C17.8708 30.3119 17.7894 30.3281 17.7072 30.3281ZM16.7441 27.0469C16.1796 27.0468 15.6269 26.8858 15.1507 26.5828C14.6746 26.2798 14.2946 25.8474 14.0554 25.3361C13.8163 24.8249 13.7278 24.256 13.8004 23.6963C13.873 23.1366 14.1036 22.6091 14.4653 22.1758C14.827 21.7425 15.3047 21.4213 15.8424 21.2498C16.3801 21.0782 16.9556 21.0636 17.5014 21.2075C18.0471 21.3514 18.5406 21.6479 18.9238 22.0622C19.3071 22.4766 19.5643 22.9916 19.6653 23.5469C19.6824 23.6286 19.683 23.7128 19.667 23.7947C19.6509 23.8767 19.6187 23.9545 19.5721 24.0238C19.5255 24.093 19.4655 24.1522 19.3957 24.1979C19.3259 24.2436 19.2476 24.2748 19.1655 24.2898C19.0834 24.3047 18.9991 24.3031 18.9176 24.2849C18.8362 24.2668 18.7592 24.2325 18.6912 24.1841C18.6232 24.1357 18.5656 24.0742 18.5217 24.0032C18.4779 23.9322 18.4487 23.8531 18.4359 23.7706C18.3771 23.4493 18.228 23.1514 18.0059 22.9117C17.7839 22.6721 17.4981 22.5008 17.1822 22.4177C16.8663 22.3347 16.5332 22.3434 16.222 22.4428C15.9108 22.5423 15.6345 22.7284 15.4252 22.9792C15.216 23.2301 15.0826 23.5355 15.0407 23.8594C14.9988 24.1834 15.0501 24.5126 15.1885 24.8085C15.327 25.1044 15.5469 25.3547 15.8225 25.5301C16.0981 25.7054 16.418 25.7986 16.7447 25.7988C16.985 25.7996 17.2228 25.7493 17.4422 25.6513C17.5174 25.6159 17.5989 25.5959 17.6819 25.5925C17.7649 25.589 17.8478 25.6022 17.9257 25.6311C18.0036 25.6601 18.0749 25.7043 18.1355 25.7611C18.1961 25.818 18.2448 25.8863 18.2787 25.9622C18.3125 26.0381 18.3309 26.12 18.3328 26.203C18.3346 26.2861 18.3199 26.3687 18.2894 26.446C18.259 26.5233 18.2134 26.5938 18.1554 26.6533C18.0974 26.7128 18.0281 26.7601 17.9516 26.7925C17.5716 26.9618 17.16 27.0485 16.7441 27.0469Z" fill="#24304C"/>
</svg>
