<svg width="40" height="40" viewBox="0 0 40 40" fill="none" xmlns="http://www.w3.org/2000/svg">
<path d="M17.2129 21.2492V14.9459C17.2129 14.1363 17.6601 13.3928 18.3754 13.0134L23.6894 10.1949C23.8981 10.0842 24.1198 10.0001 24.3494 9.94442C28.4782 8.94392 32.2641 12.5367 31.481 16.7122L31.0716 18.8942" stroke="#24304C" stroke-width="1.875"/>
<path d="M17.4023 18.3414L22.8817 15.1779C23.5828 14.7731 24.4501 14.7886 25.1363 15.2182L30.2875 18.4431C30.4649 18.5542 30.6293 18.6847 30.7777 18.8323C33.8658 21.9027 32.6021 27.1534 28.4552 28.4825L26.7125 29.0411" stroke="#24304C" stroke-width="1.875"/>
<path d="M20.3203 17.0898L25.7996 20.2533C26.5007 20.6581 26.9209 21.417 26.892 22.226L26.6767 28.2423C26.6679 28.4893 26.6273 28.7341 26.5558 28.9706C25.3181 33.0693 20.2828 34.5527 17.0206 31.7799L15.5957 30.5687" stroke="#24304C" stroke-width="1.875"/>
<path d="M22.8397 18.75V25.3469C22.8397 26.1586 22.3903 26.9036 21.6723 27.2821L16.3002 30.1139C16.0938 30.2227 15.8748 30.3058 15.6481 30.3612C11.5225 31.37 7.71747 27.8139 8.44547 23.6296L8.85947 21.25" stroke="#24304C" stroke-width="1.875"/>
<path d="M22.6246 21.9157L16.859 25.0944C16.143 25.4892 15.2666 25.4517 14.587 24.9972L9.35314 21.4979C9.22467 21.412 9.10398 21.3151 8.99245 21.2082C6.10733 18.4427 7.06211 13.6179 10.783 12.1597L13.0945 11.2539" stroke="#24304C" stroke-width="1.875"/>
<path d="M19.672 23.1675L13.8901 19.7309C13.2028 19.3223 12.7931 18.5713 12.8217 17.7723L13.0337 11.8469C13.0451 11.5279 13.1089 11.2129 13.2226 10.9147C14.7493 6.909 19.8575 5.74179 22.9724 8.68685L24.0722 9.72657" stroke="#24304C" stroke-width="1.875"/>
</svg>
