<svg width="40" height="40" viewBox="0 0 40 40" fill="none" xmlns="http://www.w3.org/2000/svg">
<path d="M14.375 23.75L18.1514 16.3153C18.1717 16.2752 18.2128 16.25 18.2578 16.25C18.3039 16.25 18.3459 16.2766 18.3656 16.3183L21.875 23.75M16.25 21.875H19.6875M25.3125 23.75V16.25M33.4375 25H35M15 33.4375V35" stroke="#24304C" stroke-width="1.875" stroke-linecap="round"/>
<path d="M6.5625 25H5" stroke="#24304C" stroke-width="1.875" stroke-linecap="round" stroke-linejoin="round"/>
<path d="M15 6.25V4.6875" stroke="#24304C" stroke-width="1.875" stroke-linecap="round"/>
<path d="M33.4375 14.6875H35" stroke="#24304C" stroke-width="1.875" stroke-linecap="round" stroke-linejoin="round"/>
<path d="M25 33.4375V35M33.4375 20H35M19.6875 33.4375V35M6.5625 20H5M19.6875 6.25V4.6875" stroke="#24304C" stroke-width="1.875" stroke-linecap="round"/>
<path d="M6.5625 14.6875H5" stroke="#24304C" stroke-width="1.875" stroke-linecap="round" stroke-linejoin="round"/>
<path d="M25 6.25V4.6875" stroke="#24304C" stroke-width="1.875" stroke-linecap="round"/>
<path d="M27.1875 9.6875H12.8125C11.0866 9.6875 9.6875 11.0866 9.6875 12.8125V27.1875C9.6875 28.9134 11.0866 30.3125 12.8125 30.3125H27.1875C28.9134 30.3125 30.3125 28.9134 30.3125 27.1875V12.8125C30.3125 11.0866 28.9134 9.6875 27.1875 9.6875Z" stroke="#24304C" stroke-width="1.875"/>
</svg>
