<svg width="40" height="40" viewBox="0 0 40 40" fill="none" xmlns="http://www.w3.org/2000/svg">
<path d="M17.5001 20C16.8945 20.0018 16.3102 20.224 15.8563 20.625H15.6251V16.875C15.6251 16.7092 15.5592 16.5503 15.442 16.4331C15.3248 16.3158 15.1658 16.25 15.0001 16.25H10.7638C10.643 16.25 10.5248 16.2851 10.4235 16.3509C10.3222 16.4167 10.2422 16.5105 10.193 16.6208C10.1439 16.7312 10.1278 16.8534 10.1467 16.9727C10.1656 17.092 10.2186 17.2033 10.2995 17.2931C10.4625 17.4723 10.57 17.6949 10.6089 17.934C10.6478 18.1731 10.6163 18.4183 10.5184 18.6399C10.4205 18.8614 10.2603 19.0498 10.0573 19.182C9.85433 19.3142 9.61732 19.3846 9.37509 19.3846C9.13285 19.3846 8.89584 19.3142 8.69286 19.182C8.48989 19.0498 8.3297 18.8614 8.23178 18.6399C8.13385 18.4183 8.10241 18.1731 8.14128 17.934C8.18015 17.6949 8.28765 17.4723 8.45071 17.2931C8.53153 17.2033 8.58459 17.092 8.60348 16.9727C8.62237 16.8534 8.60628 16.7312 8.55715 16.6208C8.50802 16.5105 8.42796 16.4167 8.32665 16.3509C8.22535 16.2851 8.10714 16.25 7.98634 16.25H3.75009C3.58433 16.25 3.42535 16.3158 3.30814 16.4331C3.19093 16.5503 3.12509 16.7092 3.12509 16.875V28.125C3.12509 28.2908 3.19093 28.4497 3.30814 28.5669C3.42535 28.6842 3.58433 28.75 3.75009 28.75H4.07696L3.16946 31.0181C3.10809 31.172 3.11033 31.344 3.17571 31.4963L5.00009 35.7531V38.125C5.00009 38.2908 5.06593 38.4497 5.18314 38.5669C5.30035 38.6842 5.45933 38.75 5.62509 38.75C5.79085 38.75 5.94982 38.6842 6.06703 38.5669C6.18424 38.4497 6.25009 38.2908 6.25009 38.125V35.625C6.25033 35.5403 6.23309 35.4565 6.19946 35.3787L4.42634 31.2413L5.42321 28.75H8.12509V31.25C8.12509 31.4158 8.19093 31.5747 8.30814 31.6919C8.42535 31.8092 8.58433 31.875 8.75009 31.875C8.91585 31.875 9.07482 31.8092 9.19203 31.6919C9.30924 31.5747 9.37509 31.4158 9.37509 31.25V25.625C9.37509 25.2935 9.50678 24.9755 9.7412 24.7411C9.97562 24.5067 10.2936 24.375 10.6251 24.375C10.9566 24.375 11.2745 24.5067 11.509 24.7411C11.7434 24.9755 11.8751 25.2935 11.8751 25.625V30.625C11.8751 30.7908 11.9409 30.9497 12.0581 31.0669C12.1754 31.1842 12.3343 31.25 12.5001 31.25C13.5163 31.25 14.3751 32.6812 14.3751 34.375C14.3751 36.0688 13.5163 37.5 12.5001 37.5C12.3343 37.5 12.1754 37.5658 12.0581 37.6831C11.9409 37.8003 11.8751 37.9592 11.8751 38.125C11.8751 38.2908 11.9409 38.4497 12.0581 38.5669C12.1754 38.6842 12.3343 38.75 12.5001 38.75C14.2501 38.75 15.6251 36.8281 15.6251 34.375C15.6251 32.2225 14.5682 30.4787 13.1251 30.0844V28.75H15.0001C15.1658 28.75 15.3248 28.6842 15.442 28.5669C15.5592 28.4497 15.6251 28.2908 15.6251 28.125V24.375H15.8563C16.16 24.6428 16.5242 24.8329 16.9176 24.9288C17.311 25.0247 17.7218 25.0237 18.1147 24.9257C18.5076 24.8278 18.8708 24.6358 19.1731 24.3665C19.4754 24.0971 19.7078 23.7583 19.8502 23.3793C19.9926 23.0002 20.0408 22.5922 19.9907 22.1904C19.9405 21.7886 19.7936 21.405 19.5624 21.0726C19.3312 20.7402 19.0227 20.4689 18.6635 20.282C18.3042 20.0952 17.905 19.9984 17.5001 20ZM17.5001 23.75C17.3251 23.7497 17.1522 23.7123 16.9929 23.6401C16.8335 23.5679 16.6913 23.4626 16.5757 23.3313C16.5171 23.2663 16.4454 23.2143 16.3654 23.1788C16.2854 23.1433 16.1989 23.1249 16.1113 23.125H15.0001C14.8343 23.125 14.6754 23.1908 14.5581 23.3081C14.4409 23.4253 14.3751 23.5842 14.3751 23.75V27.5H13.1251V25.625C13.1251 24.962 12.8617 24.3261 12.3929 23.8572C11.924 23.3884 11.2881 23.125 10.6251 23.125C9.96204 23.125 9.32616 23.3884 8.85732 23.8572C8.38848 24.3261 8.12509 24.962 8.12509 25.625V27.5H4.37509V17.5H6.95634C6.90232 17.7039 6.87501 17.914 6.87509 18.125C6.87509 18.788 7.13848 19.4239 7.60732 19.8928C8.07616 20.3616 8.71204 20.625 9.37509 20.625C10.0381 20.625 10.674 20.3616 11.1429 19.8928C11.6117 19.4239 11.8751 18.788 11.8751 18.125C11.8752 17.914 11.8479 17.7039 11.7938 17.5H14.3751V21.25C14.3751 21.4158 14.4409 21.5747 14.5581 21.6919C14.6754 21.8092 14.8343 21.875 15.0001 21.875H16.1113C16.1989 21.8751 16.2854 21.8567 16.3654 21.8212C16.4454 21.7857 16.5171 21.7337 16.5757 21.6687C16.6913 21.5374 16.8335 21.4321 16.9929 21.3599C17.1522 21.2877 17.3251 21.2503 17.5001 21.25C17.8316 21.25 18.1495 21.3817 18.384 21.6161C18.6184 21.8505 18.7501 22.1685 18.7501 22.5C18.7501 22.8315 18.6184 23.1495 18.384 23.3839C18.1495 23.6183 17.8316 23.75 17.5001 23.75Z" fill="#24304C"/>
<path d="M35 9.37508C34.3944 9.3769 33.8101 9.59906 33.3562 10.0001H33.125V6.25008C33.125 6.08432 33.0592 5.92535 32.9419 5.80814C32.8247 5.69093 32.6658 5.62508 32.5 5.62508H28.2638C28.1429 5.62511 28.0247 5.66015 27.9234 5.72596C27.8221 5.79177 27.7421 5.88553 27.6929 5.99589C27.6438 6.10626 27.6277 6.22849 27.6466 6.34781C27.6655 6.46713 27.7186 6.57841 27.7994 6.6682C27.9624 6.84734 28.0699 7.06998 28.1088 7.30908C28.1477 7.54817 28.1162 7.79341 28.0183 8.01497C27.9204 8.23652 27.7602 8.42486 27.5572 8.55706C27.3542 8.68927 27.1172 8.75965 26.875 8.75965C26.6328 8.75965 26.3958 8.68927 26.1928 8.55706C25.9898 8.42486 25.8296 8.23652 25.7317 8.01497C25.6338 7.79341 25.6023 7.54817 25.6412 7.30908C25.6801 7.06998 25.7876 6.84734 25.9506 6.6682C26.0314 6.57841 26.0845 6.46713 26.1034 6.34781C26.1223 6.22849 26.1062 6.10626 26.0571 5.99589C26.0079 5.88553 25.9279 5.79177 25.8266 5.72596C25.7253 5.66015 25.6071 5.62511 25.4862 5.62508H17.5V5.39383C17.8182 5.03299 18.0256 4.58799 18.0972 4.11223C18.1688 3.63646 18.1015 3.15015 17.9036 2.71164C17.7056 2.27313 17.3854 1.90105 16.9812 1.64006C16.577 1.37906 16.1061 1.24023 15.625 1.24023C15.1439 1.24023 14.673 1.37906 14.2688 1.64006C13.8646 1.90105 13.5444 2.27313 13.3464 2.71164C13.1485 3.15015 13.0812 3.63646 13.1528 4.11223C13.2244 4.58799 13.4318 5.03299 13.75 5.39383V5.62508H10C9.83424 5.62508 9.67527 5.69093 9.55806 5.80814C9.44085 5.92535 9.375 6.08432 9.375 6.25008V10.4863C9.37503 10.6071 9.41007 10.7253 9.47588 10.8266C9.54169 10.9279 9.63545 11.008 9.74581 11.0571C9.85618 11.1063 9.97841 11.1224 10.0977 11.1035C10.217 11.0846 10.3283 11.0315 10.4181 10.9507C10.5973 10.7876 10.8199 10.6801 11.059 10.6413C11.2981 10.6024 11.5433 10.6338 11.7649 10.7318C11.9864 10.8297 12.1748 10.9899 12.307 11.1929C12.4392 11.3958 12.5096 11.6328 12.5096 11.8751C12.5096 12.1173 12.4392 12.3543 12.307 12.5573C12.1748 12.7603 11.9864 12.9205 11.7649 13.0184C11.5433 13.1163 11.2981 13.1478 11.059 13.1089C10.8199 13.07 10.5973 12.9625 10.4181 12.7995C10.3283 12.7186 10.217 12.6656 10.0977 12.6467C9.97841 12.6278 9.85618 12.6439 9.74581 12.693C9.63545 12.7421 9.54169 12.8222 9.47588 12.9235C9.41007 13.0248 9.37503 13.143 9.375 13.2638V15.0001H10.625V14.2938C10.8289 14.3478 11.039 14.3752 11.25 14.3751C11.913 14.3751 12.5489 14.1117 13.0178 13.6428C13.4866 13.174 13.75 12.5381 13.75 11.8751C13.75 11.212 13.4866 10.5762 13.0178 10.1073C12.5489 9.63847 11.913 9.37508 11.25 9.37508C11.039 9.375 10.8289 9.40231 10.625 9.45633V6.87508H14.375C14.5408 6.87508 14.6997 6.80923 14.8169 6.69202C14.9342 6.57481 15 6.41584 15 6.25008V5.13883C15.0001 5.0513 14.9817 4.96473 14.9462 4.88474C14.9107 4.80474 14.8587 4.7331 14.7937 4.67445C14.6624 4.55888 14.5571 4.41668 14.4849 4.25731C14.4127 4.09794 14.3753 3.92504 14.375 3.75008C14.375 3.41856 14.5067 3.10062 14.7411 2.8662C14.9755 2.63178 15.2935 2.50008 15.625 2.50008C15.9565 2.50008 16.2745 2.63178 16.5089 2.8662C16.7433 3.10062 16.875 3.41856 16.875 3.75008C16.8747 3.92504 16.8373 4.09794 16.7651 4.25731C16.6929 4.41668 16.5876 4.55888 16.4563 4.67445C16.3913 4.7331 16.3393 4.80474 16.3038 4.88474C16.2683 4.96473 16.2499 5.0513 16.25 5.13883V6.25008C16.25 6.41584 16.3158 6.57481 16.4331 6.69202C16.5503 6.80923 16.7092 6.87508 16.875 6.87508H20.625V9.45633C20.4211 9.40231 20.211 9.375 20 9.37508C19.337 9.37508 18.7011 9.63847 18.2322 10.1073C17.7634 10.5762 17.5 11.212 17.5 11.8751C17.5 12.5381 17.7634 13.174 18.2322 13.6428C18.7011 14.1117 19.337 14.3751 20 14.3751C20.211 14.3752 20.4211 14.3478 20.625 14.2938V16.8751H16.875V18.1251H20.625V21.7363C20.625 21.8571 20.6601 21.9753 20.7259 22.0766C20.7917 22.1779 20.8855 22.258 20.9958 22.3071C21.1062 22.3563 21.2284 22.3724 21.3477 22.3535C21.467 22.3346 21.5783 22.2815 21.6681 22.2007C21.8473 22.0376 22.0699 21.9301 22.309 21.8913C22.5481 21.8524 22.7933 21.8838 23.0149 21.9818C23.2364 22.0797 23.4248 22.2399 23.557 22.4429C23.6892 22.6458 23.7596 22.8828 23.7596 23.1251C23.7596 23.3673 23.6892 23.6043 23.557 23.8073C23.4248 24.0103 23.2364 24.1705 23.0149 24.2684C22.7933 24.3663 22.5481 24.3978 22.309 24.3589C22.0699 24.32 21.8473 24.2125 21.6681 24.0495C21.5783 23.9686 21.467 23.9156 21.3477 23.8967C21.2284 23.8778 21.1062 23.8939 20.9958 23.943C20.8855 23.9921 20.7917 24.0722 20.7259 24.1735C20.6601 24.2748 20.625 24.393 20.625 24.5138V28.7501C20.625 28.9158 20.6908 29.0748 20.8081 29.192C20.9253 29.3092 21.0842 29.3751 21.25 29.3751H25V29.6063C24.6818 29.9672 24.4744 30.4122 24.4028 30.8879C24.3312 31.3637 24.3985 31.85 24.5964 32.2885C24.7944 32.727 25.1146 33.0991 25.5188 33.3601C25.923 33.6211 26.3939 33.7599 26.875 33.7599C27.3561 33.7599 27.827 33.6211 28.2312 33.3601C28.6354 33.0991 28.9556 32.727 29.1536 32.2885C29.3515 31.85 29.4188 31.3637 29.3472 30.8879C29.2756 30.4122 29.0682 29.9672 28.75 29.6063V29.3751H32.5C32.6658 29.3751 32.8247 29.3092 32.9419 29.192C33.0592 29.0748 33.125 28.9158 33.125 28.7501V24.5138C33.125 24.393 33.0899 24.2748 33.0241 24.1735C32.9583 24.0722 32.8645 23.9921 32.7542 23.943C32.6438 23.8939 32.5216 23.8778 32.4023 23.8967C32.283 23.9156 32.1717 23.9686 32.0819 24.0495C31.9027 24.2125 31.6801 24.32 31.441 24.3589C31.2019 24.3978 30.9567 24.3663 30.7351 24.2684C30.5136 24.1705 30.3252 24.0103 30.193 23.8073C30.0608 23.6043 29.9904 23.3673 29.9904 23.1251C29.9904 22.8828 30.0608 22.6458 30.193 22.4429C30.3252 22.2399 30.5136 22.0797 30.7351 21.9818C30.9567 21.8838 31.2019 21.8524 31.441 21.8913C31.6801 21.9301 31.9027 22.0376 32.0819 22.2007C32.1717 22.2815 32.283 22.3346 32.4023 22.3535C32.5216 22.3724 32.6438 22.3563 32.7542 22.3071C32.8645 22.258 32.9583 22.1779 33.0241 22.0766C33.0899 21.9753 33.125 21.8571 33.125 21.7363V13.7501H33.3562C33.6599 14.0179 34.0241 14.208 34.4175 14.3039C34.8109 14.3998 35.2217 14.3988 35.6146 14.3008C36.0075 14.2028 36.3707 14.0109 36.673 13.7415C36.9753 13.4722 37.2077 13.1334 37.3501 12.7543C37.4925 12.3753 37.5407 11.9673 37.4906 11.5655C37.4405 11.1637 37.2935 10.7801 37.0623 10.4477C36.8311 10.1153 36.5226 9.84395 36.1634 9.65711C35.8042 9.47027 35.4049 9.37349 35 9.37508ZM31.25 20.6251C30.587 20.6251 29.9511 20.8885 29.4822 21.3573C29.0134 21.8262 28.75 22.462 28.75 23.1251C28.75 23.7881 29.0134 24.424 29.4822 24.8928C29.9511 25.3617 30.587 25.6251 31.25 25.6251C31.461 25.6252 31.6711 25.5978 31.875 25.5438V28.1251H28.125C27.9592 28.1251 27.8003 28.1909 27.6831 28.3081C27.5658 28.4253 27.5 28.5843 27.5 28.7501V29.8613C27.4999 29.9489 27.5183 30.0354 27.5538 30.1154C27.5893 30.1954 27.6413 30.2671 27.7063 30.3257C27.8376 30.4413 27.9429 30.5835 28.0151 30.7428C28.0873 30.9022 28.1247 31.0751 28.125 31.2501C28.125 31.5816 27.9933 31.8995 27.7589 32.134C27.5245 32.3684 27.2065 32.5001 26.875 32.5001C26.5435 32.5001 26.2255 32.3684 25.9911 32.134C25.7567 31.8995 25.625 31.5816 25.625 31.2501C25.6253 31.0751 25.6627 30.9022 25.7349 30.7428C25.8071 30.5835 25.9124 30.4413 26.0437 30.3257C26.1087 30.2671 26.1607 30.1954 26.1962 30.1154C26.2317 30.0354 26.2501 29.9489 26.25 29.8613V28.7501C26.25 28.5843 26.1842 28.4253 26.0669 28.3081C25.9497 28.1909 25.7908 28.1251 25.625 28.1251H21.875V25.5438C22.0789 25.5978 22.289 25.6252 22.5 25.6251C23.163 25.6251 23.7989 25.3617 24.2678 24.8928C24.7366 24.424 25 23.7881 25 23.1251C25 22.462 24.7366 21.8262 24.2678 21.3573C23.7989 20.8885 23.163 20.6251 22.5 20.6251C22.289 20.625 22.0789 20.6523 21.875 20.7063V18.1251H25.4862C25.6071 18.125 25.7253 18.09 25.8266 18.0242C25.9279 17.9584 26.0079 17.8646 26.0571 17.7543C26.1062 17.6439 26.1223 17.5217 26.1034 17.4023C26.0845 17.283 26.0314 17.1717 25.9506 17.082C25.7876 16.9028 25.6801 16.6802 25.6412 16.4411C25.6023 16.202 25.6338 15.9567 25.7317 15.7352C25.8296 15.5136 25.9898 15.3253 26.1928 15.1931C26.3958 15.0609 26.6328 14.9905 26.875 14.9905C27.1172 14.9905 27.3542 15.0609 27.5572 15.1931C27.7602 15.3253 27.9204 15.5136 28.0183 15.7352C28.1162 15.9567 28.1477 16.202 28.1088 16.4411C28.0699 16.6802 27.9624 16.9028 27.7994 17.082C27.7186 17.1717 27.6655 17.283 27.6466 17.4023C27.6277 17.5217 27.6438 17.6439 27.6929 17.7543C27.7421 17.8646 27.8221 17.9584 27.9234 18.0242C28.0247 18.09 28.1429 18.125 28.2638 18.1251H31.875V20.7063C31.6711 20.6523 31.461 20.625 31.25 20.6251ZM35 13.1251C34.825 13.1248 34.6521 13.0873 34.4928 13.0151C34.3334 12.9429 34.1912 12.8377 34.0756 12.7063C34.017 12.6413 33.9453 12.5894 33.8653 12.5539C33.7853 12.5184 33.6988 12.5 33.6112 12.5001H32.5C32.3342 12.5001 32.1753 12.5659 32.0581 12.6831C31.9408 12.8003 31.875 12.9593 31.875 13.1251V16.8751H29.2937C29.3478 16.6711 29.3751 16.4611 29.375 16.2501C29.375 15.587 29.1116 14.9512 28.6428 14.4823C28.1739 14.0135 27.538 13.7501 26.875 13.7501C26.212 13.7501 25.5761 14.0135 25.1072 14.4823C24.6384 14.9512 24.375 15.587 24.375 16.2501C24.3749 16.4611 24.4022 16.6711 24.4563 16.8751H21.875V13.2638C21.875 13.143 21.8399 13.0248 21.7741 12.9235C21.7083 12.8222 21.6145 12.7421 21.5042 12.693C21.3938 12.6439 21.2716 12.6278 21.1523 12.6467C21.033 12.6656 20.9217 12.7186 20.8319 12.7995C20.6527 12.9625 20.4301 13.07 20.191 13.1089C19.9519 13.1478 19.7067 13.1163 19.4851 13.0184C19.2636 12.9205 19.0752 12.7603 18.943 12.5573C18.8108 12.3543 18.7404 12.1173 18.7404 11.8751C18.7404 11.6328 18.8108 11.3958 18.943 11.1929C19.0752 10.9899 19.2636 10.8297 19.4851 10.7318C19.7067 10.6338 19.9519 10.6024 20.191 10.6413C20.4301 10.6801 20.6527 10.7876 20.8319 10.9507C20.9217 11.0315 21.033 11.0846 21.1523 11.1035C21.2716 11.1224 21.3938 11.1063 21.5042 11.0571C21.6145 11.008 21.7083 10.9279 21.7741 10.8266C21.8399 10.7253 21.875 10.6071 21.875 10.4863V6.87508H24.4563C24.4022 7.07902 24.3749 7.28911 24.375 7.50008C24.375 8.16312 24.6384 8.79901 25.1072 9.26785C25.5761 9.73669 26.212 10.0001 26.875 10.0001C27.538 10.0001 28.1739 9.73669 28.6428 9.26785C29.1116 8.79901 29.375 8.16312 29.375 7.50008C29.3751 7.28911 29.3478 7.07902 29.2937 6.87508H31.875V10.6251C31.875 10.7908 31.9408 10.9498 32.0581 11.067C32.1753 11.1842 32.3342 11.2501 32.5 11.2501H33.6112C33.6988 11.2501 33.7853 11.2318 33.8653 11.1963C33.9453 11.1607 34.017 11.1088 34.0756 11.0438C34.1912 10.9125 34.3334 10.8072 34.4928 10.735C34.6521 10.6628 34.825 10.6253 35 10.6251C35.3315 10.6251 35.6495 10.7568 35.8839 10.9912C36.1183 11.2256 36.25 11.5436 36.25 11.8751C36.25 12.2066 36.1183 12.5245 35.8839 12.759C35.6495 12.9934 35.3315 13.1251 35 13.1251Z" fill="#24304C"/>
</svg>
