<svg width="18" height="18" viewBox="0 0 18 18" fill="none" xmlns="http://www.w3.org/2000/svg">
<g id="bitcoin-icons:tag-filled">
<path id="Vector" fill-rule="evenodd" clip-rule="evenodd" d="M7.49395 16.058L2.03053 10.5957C1.98247 10.5477 1.94433 10.4908 1.91832 10.4281C1.8923 10.3654 1.87891 10.2981 1.87891 10.2303C1.87891 10.1624 1.8923 10.0952 1.91832 10.0325C1.94433 9.96976 1.98247 9.91281 2.03053 9.86486L8.73981 3.15558C8.83653 3.05911 8.96756 3.00491 9.10418 3.00488H12.8056L12.8769 3.01004C12.923 3.0066 12.9704 3.00488 13.0193 3.00488C13.3025 3.00491 13.5826 3.06319 13.8423 3.1761C14.102 3.28902 14.3357 3.45415 14.5288 3.66123C14.722 3.86831 14.8704 4.11292 14.965 4.37983C15.0596 4.64675 15.0982 4.93026 15.0785 5.21275L15.0837 5.28294V8.9844C15.0837 9.12101 15.0295 9.25204 14.933 9.34877L8.22371 16.058C8.12693 16.1548 7.99568 16.2092 7.85883 16.2092C7.72198 16.2092 7.59073 16.1548 7.49395 16.058ZM8.89051 6.79511C8.89051 6.65823 8.83614 6.52696 8.73935 6.43017C8.64256 6.33339 8.51129 6.27901 8.37441 6.27901C8.23753 6.27901 8.10626 6.33339 8.00948 6.43017C7.91269 6.52696 7.85831 6.65823 7.85831 6.79511V12.6332C7.85831 12.7701 7.91269 12.9014 8.00948 12.9982C8.10626 13.0949 8.23753 13.1493 8.37441 13.1493C8.51129 13.1493 8.64256 13.0949 8.73935 12.9982C8.83614 12.9014 8.89051 12.7701 8.89051 12.6332V6.79511ZM6.91489 8.98337C7.01079 9.07927 7.08686 9.19312 7.13876 9.31842C7.19066 9.44372 7.21738 9.57802 7.21738 9.71365C7.21738 9.84927 7.19066 9.98357 7.13876 10.1089C7.08686 10.2342 7.01079 10.348 6.91489 10.4439C6.81898 10.5398 6.70513 10.6159 6.57983 10.6678C6.45453 10.7197 6.32023 10.7464 6.18461 10.7464C6.04898 10.7464 5.91468 10.7197 5.78938 10.6678C5.66408 10.6159 5.55023 10.5398 5.45433 10.4439C5.26078 10.2502 5.1521 9.98761 5.1522 9.7138C5.1523 9.43999 5.26116 9.17743 5.45484 8.98388C5.64853 8.79034 5.91116 8.68166 6.18497 8.68176C6.45878 8.68185 6.72134 8.79072 6.91489 8.9844M11.2945 10.445C11.3903 10.3491 11.4663 10.2352 11.5182 10.1099C11.57 9.98467 11.5967 9.85041 11.5966 9.71483C11.5966 9.57925 11.5698 9.44501 11.5179 9.31977C11.466 9.19453 11.3899 9.08075 11.294 8.98492C11.1981 8.88908 11.0842 8.81308 10.959 8.76124C10.8337 8.7094 10.6994 8.68274 10.5639 8.68279C10.4283 8.68284 10.294 8.70959 10.1688 8.76152C10.0436 8.81344 9.92977 8.88953 9.83394 8.98543C9.64039 9.17911 9.53172 9.44175 9.53181 9.71556C9.53191 9.98937 9.64077 10.2519 9.83446 10.4455C10.0281 10.639 10.2908 10.7477 10.5646 10.7476C10.8384 10.7475 11.101 10.6386 11.2945 10.445Z" fill="white"/>
</g>
</svg>
