<svg width="35" height="35" viewBox="0 0 35 35" fill="none" xmlns="http://www.w3.org/2000/svg">
<path opacity="0.3" d="M17.5036 5.83594C27.6069 5.83594 33.9215 16.7734 28.8698 25.5234C27.7179 27.5186 26.0611 29.1755 24.0659 30.3274C22.0707 31.4794 19.8074 32.0859 17.5036 32.0859C7.40024 32.0859 1.08565 21.1484 6.13732 12.3984C7.28925 10.4032 8.94607 8.74639 10.9413 7.59444C12.9364 6.44248 15.1997 5.836 17.5036 5.83594Z" fill="#24304C"/>
<path d="M10.741 4.33413C10.9343 4.66908 10.9867 5.06713 10.8866 5.44071C10.7865 5.8143 10.5421 6.13282 10.2072 6.32621C8.6901 7.20613 7.34235 8.34992 6.22741 9.70371C6.10784 9.85771 5.95861 9.98617 5.78854 10.0815C5.61847 10.1768 5.43101 10.2371 5.23725 10.2587C5.04349 10.2803 4.84736 10.2629 4.66046 10.2074C4.47356 10.1519 4.29968 10.0595 4.14911 9.93563C3.99854 9.81178 3.87433 9.65899 3.78383 9.48631C3.69333 9.31362 3.63837 9.12454 3.62221 8.93025C3.60604 8.73596 3.629 8.5404 3.68973 8.35513C3.75045 8.16987 3.84771 7.99866 3.97574 7.85163C5.30959 6.22607 6.92549 4.85422 8.74595 3.80184C8.91178 3.7058 9.0949 3.64338 9.28486 3.61816C9.47482 3.59293 9.6679 3.60539 9.85304 3.65483C10.0382 3.70426 10.2118 3.7897 10.3639 3.90626C10.516 4.02282 10.6436 4.16821 10.7395 4.33413H10.741ZM26.2489 3.80184C28.0697 4.85364 29.6861 6.225 31.0205 7.85017C31.2534 8.15006 31.3601 8.52894 31.318 8.90627C31.2759 9.2836 31.0883 9.62963 30.7951 9.87082C30.5018 10.112 30.1261 10.2293 29.7477 10.1979C29.3694 10.1664 29.0182 9.98858 28.7689 9.70226C27.6561 8.34676 26.3079 7.2031 24.7891 6.32621C24.4543 6.13244 24.2103 5.81362 24.1106 5.4399C24.0109 5.06617 24.0637 4.66815 24.2575 4.3334C24.4513 3.99865 24.7701 3.75458 25.1438 3.65489C25.5176 3.55521 25.9141 3.60806 26.2489 3.80184ZM17.4989 11.6681C17.1417 11.6681 16.7969 11.7993 16.53 12.0366C16.2631 12.274 16.0925 12.6011 16.0507 12.9558L16.0405 13.1264V18.9393C16.0362 19.2631 16.1397 19.581 16.3351 19.8391L16.4664 19.9908L19.5376 23.0606C19.7994 23.3249 20.1524 23.4792 20.5243 23.4918C20.8961 23.5044 21.2587 23.3744 21.5378 23.1285C21.817 22.8825 21.9916 22.5391 22.0258 22.1686C22.0601 21.7982 21.9515 21.4286 21.7222 21.1356L21.5997 20.9985L18.9572 18.356V13.1264C18.9572 12.7396 18.8036 12.3687 18.5301 12.0952C18.2566 11.8217 17.8856 11.6681 17.4989 11.6681Z" fill="#24304C"/>
</svg>
