<svg width="20" height="17" viewBox="0 0 20 17" fill="none" xmlns="http://www.w3.org/2000/svg">
<path id="Vector" d="M2.575 0.19043C1.99152 0.19043 1.43195 0.422215 1.01937 0.834795C0.606785 1.24737 0.375 1.80695 0.375 2.39043V13.9904C0.375 14.5739 0.606785 15.1335 1.01937 15.5461C1.43195 15.9586 1.99152 16.1904 2.575 16.1904H17.3718C17.9553 16.1904 18.5149 15.9586 18.9274 15.5461C19.34 15.1335 19.5718 14.5739 19.5718 13.9904V2.39043C19.5718 1.80695 19.34 1.24737 18.9274 0.834795C18.5149 0.422215 17.9553 0.19043 17.3718 0.19043H2.575ZM1.575 2.39043C1.575 1.83843 2.023 1.39043 2.575 1.39043H17.3718C17.9238 1.39043 18.3718 1.83843 18.3718 2.39043V13.9904C18.3718 14.5424 17.9238 14.9904 17.3718 14.9904H14.7718V11.7904C14.7718 11.3661 14.6032 10.9591 14.3032 10.6591C14.0031 10.359 13.5961 10.1904 13.1718 10.1904H6.7718C6.34745 10.1904 5.94049 10.359 5.64043 10.6591C5.34037 10.9591 5.1718 11.3661 5.1718 11.7904V14.9904H2.575C2.023 14.9904 1.575 14.5424 1.575 13.9904V2.39043ZM12.7718 6.19043C12.7718 6.93304 12.4768 7.64523 11.9517 8.17033C11.4266 8.69543 10.7144 8.99043 9.9718 8.99043C9.22919 8.99043 8.517 8.69543 7.9919 8.17033C7.4668 7.64523 7.1718 6.93304 7.1718 6.19043C7.1718 5.44782 7.4668 4.73563 7.9919 4.21053C8.517 3.68543 9.22919 3.39043 9.9718 3.39043C10.7144 3.39043 11.4266 3.68543 11.9517 4.21053C12.4768 4.73563 12.7718 5.44782 12.7718 6.19043Z" fill="black"/>
</svg>
