<svg width="362" height="191" viewBox="0 0 362 191" fill="none" xmlns="http://www.w3.org/2000/svg">
<path d="M0.997097 33.9863C4.05631 46.1106 19.0009 70.201 54.3055 69.5677C98.4362 68.7761 111.255 73.5957 131.581 100.197C153.363 128.702 183.283 138.449 223.405 130.018C263.527 121.587 283.386 141.952 299.613 162.249C315.84 182.545 351.843 199.971 407.702 182.65M6.34777 25.4419C9.40699 37.5663 24.3516 61.6566 59.6562 61.0234C103.787 60.2318 116.605 65.0514 136.932 91.6524C158.714 120.158 188.633 129.905 228.755 121.474C268.878 113.043 288.736 133.408 304.963 153.704C321.19 174.001 357.193 191.427 413.053 174.106M11.6984 16.8976C14.7577 29.0219 29.7022 53.1123 65.0068 52.479C109.138 51.6874 121.956 56.507 142.283 83.108C164.065 111.613 193.984 121.361 234.106 112.93C274.228 104.498 294.087 124.864 310.314 145.16C326.541 165.456 362.544 182.882 418.404 165.562M17.0491 8.35323C20.1083 20.4776 35.0529 44.5679 70.3575 43.9346C114.488 43.1431 127.307 47.9627 147.633 74.5637C169.415 103.069 199.335 112.816 239.457 104.385C279.579 95.954 299.438 116.319 315.665 136.616C331.892 156.912 367.895 174.338 423.754 157.017M22.3998 -0.191129C25.459 11.9332 40.4036 36.0236 75.7082 35.3903C119.839 34.5987 132.657 39.4183 152.984 66.0193C174.766 94.5246 204.685 104.272 244.808 95.8409C284.93 87.4097 304.788 107.775 321.015 128.071C337.242 148.368 373.245 165.794 429.105 148.473M27.7505 -8.73547C30.8097 3.38886 45.7543 27.4792 81.0589 26.846C125.19 26.0544 138.008 30.8739 158.335 57.4749C180.117 85.9802 210.036 95.7277 250.158 87.2965C290.28 78.8653 310.139 99.2306 326.366 119.527C342.593 139.823 378.596 157.249 434.456 139.929M33.1011 -17.2798C36.1604 -5.15548 51.1049 18.9349 86.4095 18.3016C130.54 17.51 143.359 22.3296 163.685 48.9306C185.467 77.4359 215.387 87.1834 255.509 78.7521C295.631 70.3209 315.49 90.6862 331.717 110.983C347.944 131.279 383.947 148.705 439.806 131.384M38.4518 -25.8242C41.511 -13.6998 56.4556 10.3905 91.7602 9.75725C135.891 8.96567 148.71 13.7853 169.036 40.3863C190.818 68.8915 220.737 78.639 260.86 70.2078C300.982 61.7766 320.84 82.1419 337.067 102.438C353.294 122.734 389.297 140.161 445.157 122.84M43.8025 -34.3685C46.8617 -22.2442 61.8063 1.84616 97.1109 1.2129C141.242 0.421314 154.06 5.24091 174.387 31.8419C196.169 60.3472 226.088 70.0947 266.21 61.6635C306.332 53.2323 326.191 73.5975 342.418 93.8938C358.645 114.19 394.648 131.616 450.508 114.296M49.1532 -42.9129C52.2124 -30.7885 67.157 -6.69818 102.462 -7.33145C146.592 -8.12303 159.411 -3.30345 179.737 23.2976C201.519 51.8028 231.439 61.5503 271.561 53.1191C311.683 44.6879 331.542 65.0532 347.769 85.3495C363.996 105.646 399.999 123.072 455.858 105.751M54.5038 -51.4572C57.5631 -39.3329 72.5076 -15.2425 107.812 -15.8758C151.943 -16.6674 164.762 -11.8478 185.088 14.7532C206.87 43.2585 236.789 53.006 276.912 44.5748C317.034 36.1436 336.892 56.5088 353.119 76.8051C369.346 97.1014 405.35 114.528 461.209 97.2068M59.8545 -60.0016C62.9137 -47.8772 77.8583 -23.7869 113.163 -24.4201C157.294 -25.2117 170.112 -20.3921 190.439 6.20886C212.221 34.7141 242.14 44.4616 282.262 36.0304C322.384 27.5992 342.243 47.9645 358.47 68.2608C374.697 88.5571 410.7 105.983 466.56 88.6625M65.2052 -68.5459C68.2644 -56.4216 83.209 -32.3312 118.514 -32.9645C162.644 -33.7561 175.463 -28.9365 195.79 -2.3355C217.571 26.1698 247.491 35.9173 287.613 27.4861C327.735 19.0549 347.594 39.4201 363.821 59.7164C380.048 80.0127 416.051 97.4388 471.91 80.1181M70.5559 -77.0903C73.6151 -64.9659 88.5597 -40.8756 123.864 -41.5089C167.995 -42.3004 180.814 -37.4808 201.14 -10.8798C222.922 17.6254 252.841 27.3729 292.964 18.9417C333.086 10.5105 352.945 30.8758 369.171 51.1721C385.398 71.4684 421.402 88.8945 477.261 71.5738M75.9065 -85.6346C78.9658 -73.5103 93.9103 -49.4199 129.215 -50.0532C173.346 -50.8448 186.164 -46.0252 206.491 -19.4242C228.273 9.08109 258.192 18.8286 298.314 10.3974C338.436 1.96615 358.295 22.3314 374.522 42.6277C390.749 62.924 426.752 80.3501 482.612 63.0294M81.2572 -94.179C84.3164 -82.0546 99.261 -57.9643 134.566 -58.5975C178.696 -59.3891 191.515 -54.5696 211.842 -27.9685C233.623 0.536727 263.543 10.2842 303.665 1.85301C343.787 -6.57819 363.646 13.7871 379.873 34.0834C396.1 54.3797 432.103 71.8057 487.962 54.4851" stroke="url(#paint0_linear_1162_7737)" stroke-width="0.753239"/>
<defs>
<linearGradient id="paint0_linear_1162_7737" x1="271.667" y1="-97.4683" x2="193.12" y2="93.9702" gradientUnits="userSpaceOnUse">
<stop stop-color="#21C1F3"/>
<stop offset="1" stop-color="#21C1F3" stop-opacity="0"/>
</linearGradient>
</defs>
</svg>
