<svg width="20" height="21" viewBox="0 0 20 21" fill="none" xmlns="http://www.w3.org/2000/svg">
<g clip-path="url(#clip0_2659_7461)">
<path fill-rule="evenodd" clip-rule="evenodd" d="M7.92088 3.31834C8.49564 2.82857 9.22074 1.71898 9.97558 1.69853C10.7304 1.67808 11.4695 2.748 12.07 3.20593L12.2105 3.31834L12.5212 3.58283C12.7477 3.77624 13.0213 3.90435 13.3147 3.95477L13.4618 3.97295L13.8693 4.00601C14.6241 4.06624 16.1667 3.55243 16.7155 4.07417C17.2643 4.59591 16.7861 6.12158 16.8844 6.87242L16.9017 7.03772L16.9348 7.44603C16.9579 7.74192 17.0613 8.02625 17.2323 8.26925L17.3233 8.38662L17.5894 8.69739C18.0792 9.27216 19.1887 9.99728 19.2092 10.7521C19.2296 11.507 18.1597 12.2461 17.7018 12.8466L17.5894 12.9871L17.3241 13.2979C17.131 13.5241 17.0025 13.7982 16.9522 14.0913L16.934 14.2384L16.9017 14.6459C16.8415 15.4008 17.3553 16.9434 16.8336 17.4922C16.3119 18.041 14.7862 17.5628 14.0354 17.6611L13.8693 17.6785L13.4618 17.7115C13.1656 17.7349 12.8813 17.8377 12.6386 18.0091L12.5212 18.1008L12.2096 18.3653C11.635 18.8552 10.9099 19.9649 10.1551 19.9855C9.40024 20.0061 8.66109 18.9364 8.06056 18.4785L7.92088 18.3661L7.61011 18.1008C7.3839 17.9077 7.10979 17.7792 6.81666 17.7289L6.66954 17.7115L6.26207 17.6785C5.50725 17.6182 3.96463 18.132 3.41582 17.6103C2.86702 17.0886 3.34528 15.5629 3.24697 14.8121L3.22961 14.6468L3.19655 14.2384C3.17314 13.9423 3.07036 13.6579 2.89901 13.4152L2.80726 13.2979L2.54195 12.9863C2.05219 12.4115 0.942614 11.6864 0.922164 10.9315C0.901714 10.1766 1.97163 9.43752 2.42955 8.83708L2.54195 8.69739L2.80644 8.38662C2.99984 8.16015 3.12795 7.88657 3.17837 7.59315L3.19655 7.44603L3.22961 7.03855C3.28984 6.2837 2.77602 4.74107 3.29775 4.19225C3.81948 3.64343 5.34513 4.12168 6.09595 4.02337L6.26125 4.00601L6.66954 3.97295C6.96543 3.94981 7.24975 3.84649 7.49275 3.6754L7.61011 3.58365L7.92088 3.31834Z" fill="white" fill-opacity="0.7"/>
<path fill-rule="evenodd" clip-rule="evenodd" d="M7.78206 7.25293C7.50646 7.25293 7.24214 7.36241 7.04725 7.5573C6.85237 7.75218 6.74289 8.0165 6.74289 8.2921C6.74289 8.56771 6.85237 8.83203 7.04725 9.02691C7.24214 9.22179 7.50646 9.33128 7.78206 9.33128C8.05767 9.33128 8.32198 9.22179 8.51687 9.02691C8.71175 8.83203 8.82123 8.56771 8.82123 8.2921C8.82123 8.0165 8.71175 7.75218 8.51687 7.5573C8.32198 7.36241 8.05767 7.25293 7.78206 7.25293ZM12.7652 7.45591L6.94587 13.2753C6.87971 13.3392 6.82693 13.4156 6.79062 13.5002C6.75431 13.5847 6.7352 13.6756 6.7344 13.7676C6.7336 13.8596 6.75113 13.9508 6.78596 14.0359C6.8208 14.1211 6.87224 14.1984 6.93729 14.2635C7.00233 14.3285 7.07968 14.38 7.16482 14.4148C7.24996 14.4496 7.34119 14.4671 7.43318 14.4664C7.52516 14.4656 7.61607 14.4464 7.70059 14.4101C7.78511 14.3738 7.86156 14.321 7.92547 14.2549L13.7448 8.43551C13.871 8.30485 13.9409 8.12985 13.9393 7.94821C13.9377 7.76656 13.8648 7.5928 13.7364 7.46435C13.6079 7.33591 13.4342 7.26305 13.2525 7.26147C13.0709 7.25989 12.8959 7.32972 12.7652 7.45591ZM12.9086 12.3795C12.633 12.3795 12.3687 12.489 12.1738 12.6839C11.979 12.8788 11.8695 13.1431 11.8695 13.4187C11.8695 13.6943 11.979 13.9586 12.1738 14.1535C12.3687 14.3484 12.633 14.4579 12.9086 14.4579C13.1843 14.4579 13.4486 14.3484 13.6435 14.1535C13.8383 13.9586 13.9478 13.6943 13.9478 13.4187C13.9478 13.1431 13.8383 12.8788 13.6435 12.6839C13.4486 12.489 13.1843 12.3795 12.9086 12.3795Z" fill="#3286F6"/>
</g>
<defs>
<clipPath id="clip0_2659_7461">
<rect width="19.1208" height="19.9521" fill="white" transform="translate(0.320312 0.866211)"/>
</clipPath>
</defs>
</svg>
