<svg width="21" height="21" viewBox="0 0 21 21" fill="none" xmlns="http://www.w3.org/2000/svg">
<path fill-rule="evenodd" clip-rule="evenodd" d="M8.54588 3.31834C9.12064 2.82857 9.84574 1.71898 10.6006 1.69853C11.3554 1.67808 12.0945 2.748 12.695 3.20593L12.8355 3.31834L13.1462 3.58283C13.3727 3.77624 13.6463 3.90435 13.9397 3.95477L14.0868 3.97295L14.4943 4.00601C15.2491 4.06624 16.7917 3.55243 17.3405 4.07417C17.8893 4.59591 17.4111 6.12158 17.5094 6.87242L17.5267 7.03772L17.5598 7.44603C17.5829 7.74192 17.6863 8.02625 17.8573 8.26925L17.9483 8.38662L18.2144 8.69739C18.7042 9.27216 19.8137 9.99728 19.8342 10.7521C19.8546 11.507 18.7847 12.2461 18.3268 12.8466L18.2144 12.9871L17.9491 13.2979C17.756 13.5241 17.6275 13.7982 17.5772 14.0913L17.559 14.2384L17.5267 14.6459C17.4665 15.4008 17.9803 16.9434 17.4586 17.4922C16.9369 18.041 15.4112 17.5628 14.6604 17.6611L14.4943 17.6785L14.0868 17.7115C13.7906 17.7349 13.5063 17.8377 13.2636 18.0091L13.1462 18.1008L12.8346 18.3653C12.26 18.8552 11.5349 19.9649 10.7801 19.9855C10.0252 20.0061 9.28609 18.9364 8.68556 18.4785L8.54588 18.3661L8.23511 18.1008C8.0089 17.9077 7.73479 17.7792 7.44166 17.7289L7.29454 17.7115L6.88707 17.6785C6.13225 17.6182 4.58963 18.132 4.04082 17.6103C3.49202 17.0886 3.97028 15.5629 3.87197 14.8121L3.85461 14.6468L3.82155 14.2384C3.79814 13.9423 3.69536 13.6579 3.52401 13.4152L3.43226 13.2979L3.16695 12.9863C2.67719 12.4115 1.56761 11.6864 1.54716 10.9315C1.52671 10.1766 2.59663 9.43752 3.05455 8.83708L3.16695 8.69739L3.43144 8.38662C3.62484 8.16015 3.75295 7.88657 3.80337 7.59315L3.82155 7.44603L3.85461 7.03855C3.91484 6.2837 3.40102 4.74107 3.92275 4.19225C4.44448 3.64343 5.97013 4.12168 6.72095 4.02337L6.88625 4.00601L7.29454 3.97295C7.59043 3.94981 7.87475 3.84649 8.11775 3.6754L8.23511 3.58365L8.54588 3.31834Z" fill="white" fill-opacity="0.6"/>
<path fill-rule="evenodd" clip-rule="evenodd" d="M8.42269 7.25293C8.14708 7.25293 7.88276 7.36241 7.68788 7.5573C7.493 7.75218 7.38351 8.0165 7.38351 8.2921C7.38351 8.56771 7.493 8.83203 7.68788 9.02691C7.88276 9.22179 8.14708 9.33128 8.42269 9.33128C8.69829 9.33128 8.96261 9.22179 9.15749 9.02691C9.35238 8.83203 9.46186 8.56771 9.46186 8.2921C9.46186 8.0165 9.35238 7.75218 9.15749 7.5573C8.96261 7.36241 8.69829 7.25293 8.42269 7.25293ZM13.4059 7.45591L7.5865 13.2753C7.52033 13.3392 7.46755 13.4156 7.43124 13.5002C7.39494 13.5847 7.37583 13.6756 7.37503 13.7676C7.37423 13.8596 7.39176 13.9508 7.42659 14.0359C7.46142 14.1211 7.51286 14.1984 7.57791 14.2635C7.64296 14.3285 7.72031 14.38 7.80545 14.4148C7.89059 14.4496 7.98181 14.4671 8.0738 14.4664C8.16579 14.4656 8.2567 14.4464 8.34122 14.4101C8.42574 14.3738 8.50218 14.321 8.56609 14.2549L14.3855 8.43551C14.5117 8.30485 14.5815 8.12985 14.5799 7.94821C14.5783 7.76656 14.5055 7.5928 14.377 7.46435C14.2486 7.33591 14.0748 7.26305 13.8932 7.26147C13.7115 7.25989 13.5365 7.32972 13.4059 7.45591ZM13.5493 12.3795C13.2737 12.3795 13.0093 12.489 12.8145 12.6839C12.6196 12.8788 12.5101 13.1431 12.5101 13.4187C12.5101 13.6943 12.6196 13.9586 12.8145 14.1535C13.0093 14.3484 13.2737 14.4579 13.5493 14.4579C13.8249 14.4579 14.0892 14.3484 14.2841 14.1535C14.479 13.9586 14.5884 13.6943 14.5884 13.4187C14.5884 13.1431 14.479 12.8788 14.2841 12.6839C14.0892 12.489 13.8249 12.3795 13.5493 12.3795Z" fill="#0D143C"/>
</svg>
