<svg width="85" height="89" viewBox="0 0 85 89" fill="none" xmlns="http://www.w3.org/2000/svg">
<path d="M16.1641 37.3984H68.8391" stroke="#00C1FD" stroke-width="4.8" stroke-linecap="round" stroke-linejoin="round"/>
<path d="M27.9532 47.0734L26.9141 37.3984H58.0891L57.0499 47.0734" stroke="#00C1FD" stroke-width="4.8" stroke-linecap="round" stroke-linejoin="round"/>
<path d="M33.3633 11.6C33.3633 13.8809 34.326 16.0683 36.0394 17.6811C37.7531 19.2939 40.0773 20.2 42.5008 20.2C44.9242 20.2 47.2485 19.2939 48.9621 17.6811C50.6754 16.0683 51.6383 13.8809 51.6383 11.6C51.6383 9.31915 50.6754 7.1317 48.9621 5.51887C47.2485 3.90606 44.9242 3 42.5008 3C40.0773 3 37.7531 3.90606 36.0394 5.51887C34.326 7.1317 33.3633 9.31915 33.3633 11.6Z" stroke="#00C1FD" stroke-width="4.8" stroke-linecap="round" stroke-linejoin="round"/>
<path d="M53.7879 27.7258C52.3962 26.3778 50.6659 25.2951 48.7172 24.5527C46.7681 23.8103 44.6471 23.4258 42.5004 23.4258C40.3536 23.4258 38.2326 23.8103 36.2839 24.5527C34.335 25.2951 32.6048 26.3778 31.2129 27.7258" stroke="#00C1FD" stroke-width="4.8" stroke-linecap="round" stroke-linejoin="round"/>
<path d="M5.41406 61.0492C5.41406 63.3301 6.37679 65.5176 8.09039 67.1305C9.804 68.743 12.1282 69.6492 14.5516 69.6492C16.975 69.6492 19.2992 68.743 21.0128 67.1305C22.7264 65.5176 23.6891 63.3301 23.6891 61.0492C23.6891 58.7683 22.7264 56.5808 21.0128 54.968C19.2992 53.3554 16.975 52.4492 14.5516 52.4492C12.1282 52.4492 9.804 53.3554 8.09039 54.968C6.37679 56.5808 5.41406 58.7683 5.41406 61.0492Z" stroke="#00C1FD" stroke-width="4.8" stroke-linecap="round" stroke-linejoin="round"/>
<path d="M25.8387 87.9258C24.4468 82.8713 22.7166 78.8116 20.7677 76.027C18.8189 73.2425 16.6978 71.8008 14.5512 71.8008C12.4045 71.8008 10.2834 73.2425 8.33458 76.027C6.38574 78.8116 4.65556 82.8713 3.26367 87.9258" stroke="#00C1FD" stroke-width="4.8" stroke-linecap="round" stroke-linejoin="round"/>
<path d="M33.3633 61.0492C33.3633 63.3301 34.326 65.5176 36.0394 67.1305C37.7531 68.743 40.0773 69.6492 42.5008 69.6492C44.9242 69.6492 47.2485 68.743 48.9621 67.1305C50.6754 65.5176 51.6383 63.3301 51.6383 61.0492C51.6383 58.7683 50.6754 56.5808 48.9621 54.968C47.2485 53.3554 44.9242 52.4492 42.5008 52.4492C40.0773 52.4492 37.7531 53.3554 36.0394 54.968C34.326 56.5808 33.3633 58.7683 33.3633 61.0492Z" stroke="#00C1FD" stroke-width="4.8" stroke-linecap="round" stroke-linejoin="round"/>
<path d="M53.7879 87.9258C52.3962 82.8713 50.6659 78.8116 48.7172 76.027C46.7681 73.2425 44.6471 71.8008 42.5004 71.8008C40.3536 71.8008 38.2326 73.2425 36.2839 76.027C34.335 78.8116 32.6048 82.8713 31.2129 87.9258" stroke="#00C1FD" stroke-width="4.8" stroke-linecap="round" stroke-linejoin="round"/>
<path d="M61.3145 61.0492C61.3145 63.3301 62.2769 65.5176 63.9906 67.1305C65.7043 68.743 68.0285 69.6492 70.452 69.6492C72.8754 69.6492 75.1993 68.743 76.9129 67.1305C78.6266 65.5176 79.5895 63.3301 79.5895 61.0492C79.5895 58.7683 78.6266 56.5808 76.9129 54.968C75.1993 53.3554 72.8754 52.4492 70.452 52.4492C68.0285 52.4492 65.7043 53.3554 63.9906 54.968C62.2769 56.5808 61.3145 58.7683 61.3145 61.0492Z" stroke="#00C1FD" stroke-width="4.8" stroke-linecap="round" stroke-linejoin="round"/>
<path d="M81.7391 89.0008C80.3471 83.6093 78.6171 79.2789 76.668 76.3088C74.7193 73.3386 72.5983 71.8008 70.4516 71.8008C68.3049 71.8008 66.1838 73.3386 64.2351 76.3088C62.286 79.2789 60.5561 83.6093 59.1641 89.0008" stroke="#00C1FD" stroke-width="4.8" stroke-linecap="round" stroke-linejoin="round"/>
</svg>
