<svg width="79" height="86" viewBox="0 0 79 86" fill="none" xmlns="http://www.w3.org/2000/svg">
<path d="M52.0392 16.0717C52.0392 19.3758 50.7198 22.5447 48.3714 24.8811C46.023 27.2175 42.8378 28.53 39.5167 28.53C36.1955 28.53 33.0103 27.2175 30.6619 24.8811C28.3135 22.5447 26.9941 19.3758 26.9941 16.0717C26.9941 12.7675 28.3135 9.59865 30.6619 7.26225C33.0103 4.92586 36.1955 3.61328 39.5167 3.61328C42.8378 3.61328 46.023 4.92586 48.3714 7.26225C50.7198 9.59865 52.0392 12.7675 52.0392 16.0717Z" stroke="#FFA000" stroke-width="6.67129" stroke-linecap="round" stroke-linejoin="round"/>
<path d="M14.4742 82.4109C14.4742 82.4109 13.2252 74.7443 11.6914 63.0312" stroke="#FFA000" stroke-width="6.67129" stroke-linecap="round" stroke-linejoin="round"/>
<path d="M64.5625 83.7952C64.5625 83.7952 65.8115 75.581 67.3453 63.0312" stroke="#FFA000" stroke-width="6.67129" stroke-linecap="round" stroke-linejoin="round"/>
<path d="M7.46188 50.8112C5.86109 50.8402 4.46692 51.8182 4.24986 53.3963C4.13089 54.2788 4.03906 55.4042 4.03906 56.7995C4.03906 58.1948 4.13089 59.3223 4.24986 60.2048C4.46692 61.7828 5.86109 62.7588 7.4598 62.7878C11.9909 62.875 22.4743 63.0287 39.5195 63.0287C56.5648 63.0287 67.0503 62.875 71.5772 62.7878C73.178 62.7588 74.5721 61.7808 74.7871 60.2027C74.9082 59.3202 75 58.1948 75 56.7995C75 55.4042 74.9082 54.2767 74.7871 53.3942C74.5721 51.8162 73.1801 50.8402 71.5793 50.8112C67.0482 50.724 56.5648 50.5703 39.5195 50.5703C22.4743 50.5703 11.9888 50.724 7.46188 50.8112Z" stroke="#FFA000" stroke-width="6.67129" stroke-linecap="round" stroke-linejoin="round"/>
<path d="M60.3902 40.4832C59.9831 38.7388 59.5111 37.0101 58.9751 35.3005C58.013 32.2379 55.5606 29.9704 52.3799 29.4451C49.5039 28.9655 45.2859 28.5273 39.5193 28.5273C33.7527 28.5273 29.5326 28.9675 26.6608 29.443C23.4759 29.9704 21.0256 32.2379 20.0614 35.3026C19.6106 36.7395 19.118 38.4795 18.6484 40.4832" stroke="#FFA000" stroke-width="6.67129" stroke-linecap="round" stroke-linejoin="round"/>
</svg>
