<svg width="82" height="76" viewBox="0 0 82 76" fill="none" xmlns="http://www.w3.org/2000/svg">
<g clip-path="url(#clip0_1794_2491)">
<path d="M48.1294 64.125H44.7517C44.2953 64.1168 43.8613 63.9388 43.5444 63.6307C43.228 63.3226 43.0547 62.9093 43.0628 62.4815V11.1403C43.0587 10.9286 43.0993 10.7183 43.182 10.5213C43.2644 10.3243 43.3877 10.1445 43.5448 9.99216C43.7015 9.83985 43.889 9.71799 44.096 9.63354C44.3031 9.54908 44.5257 9.5037 44.7517 9.5H48.1294" stroke="#FE6D38" stroke-width="5" stroke-linecap="round" stroke-linejoin="round"/>
<path d="M35.4629 38H43.0629" stroke="#FE6D38" stroke-width="5" stroke-linecap="round" stroke-linejoin="round"/>
<path d="M58.2637 9.5C58.2637 10.4357 58.4603 11.3622 58.8423 12.2266C59.2243 13.0911 59.784 13.8765 60.4896 14.5381C61.1956 15.1997 62.0333 15.7246 62.9554 16.0826C63.8775 16.4407 64.8655 16.625 65.8637 16.625C66.8618 16.625 67.8501 16.4407 68.7723 16.0826C69.6941 15.7246 70.5321 15.1997 71.2377 14.5381C71.9433 13.8765 72.5034 13.0911 72.8854 12.2266C73.2671 11.3622 73.4637 10.4357 73.4637 9.5C73.4637 8.56435 73.2671 7.63781 72.8854 6.77337C72.5034 5.90894 71.9433 5.12348 71.2377 4.46187C70.5321 3.80025 69.6941 3.27541 68.7723 2.91736C67.8501 2.55929 66.8618 2.375 65.8637 2.375C64.8655 2.375 63.8775 2.55929 62.9554 2.91736C62.0333 3.27541 61.1956 3.80025 60.4896 4.46187C59.784 5.12348 59.2243 5.90894 58.8423 6.77337C58.4603 7.63781 58.2637 8.56435 58.2637 9.5Z" stroke="#FE6D38" stroke-width="5" stroke-linecap="round" stroke-linejoin="round"/>
<path d="M78.5292 28.5C77.7766 25.8567 76.1411 23.5085 73.8628 21.7992C71.5841 20.0898 68.7819 19.1089 65.8659 19C62.9492 19.1082 60.1463 20.0888 57.867 21.7983C55.588 23.5077 53.9521 25.8562 53.1992 28.5H78.5292Z" stroke="#FE6D38" stroke-width="5" stroke-linecap="round" stroke-linejoin="round"/>
<path d="M58.2637 54.625C58.2637 55.5608 58.4603 56.4873 58.8423 57.3515C59.2243 58.216 59.784 59.0016 60.4896 59.6632C61.1956 60.3247 62.0333 60.8497 62.9554 61.2075C63.8775 61.5657 64.8655 61.75 65.8637 61.75C66.8618 61.75 67.8501 61.5657 68.7723 61.2075C69.6941 60.8497 70.5321 60.3247 71.2377 59.6632C71.9433 59.0016 72.5034 58.216 72.8854 57.3515C73.2671 56.4873 73.4637 55.5608 73.4637 54.625C73.4637 53.6893 73.2671 52.7627 72.8854 51.8985C72.5034 51.034 71.9433 50.2484 71.2377 49.5868C70.5321 48.9253 69.6941 48.4003 68.7723 48.0424C67.8501 47.6843 66.8618 47.5 65.8637 47.5C64.8655 47.5 63.8775 47.6843 62.9554 48.0424C62.0333 48.4003 61.1956 48.9253 60.4896 49.5868C59.784 50.2484 59.2243 51.034 58.8423 51.8985C58.4603 52.7627 58.2637 53.6893 58.2637 54.625Z" stroke="#FE6D38" stroke-width="5" stroke-linecap="round" stroke-linejoin="round"/>
<path d="M78.5306 73.625C77.7777 70.9812 76.1422 68.6327 73.8628 66.9234C71.5835 65.2137 68.7806 64.2333 65.8639 64.125C62.9476 64.2333 60.1443 65.2137 57.865 66.9234C55.586 68.6327 53.9502 70.9812 53.1973 73.625H78.5306Z" stroke="#FE6D38" stroke-width="5" stroke-linecap="round" stroke-linejoin="round"/>
<path d="M7.59766 28.5C7.59766 31.0196 8.66527 33.4359 10.5656 35.2174C12.466 36.999 15.0435 38 17.731 38C20.4185 38 22.996 36.999 24.8963 35.2174C26.7967 33.4359 27.8643 31.0196 27.8643 28.5C27.8643 25.9804 26.7967 23.5641 24.8963 21.7825C22.996 20.0009 20.4185 19 17.731 19C15.0435 19 12.466 20.0009 10.5656 21.7825C8.66527 23.5641 7.59766 25.9804 7.59766 28.5Z" stroke="#FE6D38" stroke-width="5" stroke-linecap="round" stroke-linejoin="round"/>
<path d="M2.5293 57C2.5293 53.2206 4.13072 49.596 6.98127 46.9237C9.83184 44.2513 13.698 42.75 17.7293 42.75C21.7606 42.75 25.6268 44.2513 28.4773 46.9237C31.3279 49.596 32.9293 53.2206 32.9293 57H2.5293Z" stroke="#FE6D38" stroke-width="5" stroke-linecap="round" stroke-linejoin="round"/>
</g>
<defs>
<clipPath id="clip0_1794_2491">
<rect width="81.0667" height="76" fill="white"/>
</clipPath>
</defs>
</svg>
