<svg width="102" height="87" viewBox="0 0 102 87" fill="none" xmlns="http://www.w3.org/2000/svg">
<path d="M10.116 11.5286C10.3516 9.79424 12.1869 8.88013 14.2676 8.81754C19.0963 8.67096 29.9905 8.44531 51.2193 8.44531C72.4482 8.44531 83.3404 8.67096 88.1711 8.81754C90.2517 8.88013 92.0871 9.79424 92.3246 11.5286C92.3952 12.049 92.4404 12.665 92.4404 13.3864C92.4404 14.1095 92.3952 14.7238 92.3226 15.2443C92.0871 16.9786 90.2517 17.8927 88.1711 17.9553C83.3423 18.1019 72.4482 18.3275 51.2193 18.3275C29.9905 18.3275 19.0983 18.1019 14.2676 17.9553C12.1869 17.8927 10.3516 16.9786 10.1141 15.2443C10.0334 14.6273 9.99478 14.0071 9.99826 13.3864C9.99826 12.6634 10.0434 12.049 10.116 11.5286Z" stroke="#00858C" stroke-width="7.18" stroke-linecap="round" stroke-linejoin="round"/>
<path d="M14.0063 62.7749C14.2045 60.9401 16.0987 59.9288 18.2933 59.8597C22.8982 59.7131 32.7206 59.5039 51.2191 59.5039C69.7156 59.5039 79.5399 59.7131 84.1449 59.8597C86.3394 59.9288 88.2336 60.9401 88.4319 62.7749C88.4829 63.2542 88.5143 63.8076 88.5143 64.445C88.5143 65.0824 88.4829 65.6358 88.4319 66.1151C88.2336 67.9499 86.3394 68.9612 84.1449 69.0304C79.5399 69.177 69.7175 69.3861 51.2191 69.3861C32.7206 69.3861 22.8982 69.177 18.2933 69.0304C16.0987 68.9612 14.2045 67.9499 14.0063 66.1151C13.9552 65.6358 13.9238 65.0824 13.9238 64.445C13.9238 63.8076 13.9552 63.2542 14.0063 62.7749Z" stroke="#00858C" stroke-width="7.18" stroke-linecap="round" stroke-linejoin="round"/>
<path d="M17.8496 18.0469V38.9148C17.8496 48.718 18.1578 55.6982 18.4189 59.8536M84.5885 18.0485V38.9148C84.5885 48.718 84.2803 55.6982 84.0192 59.8536" stroke="#00858C" stroke-width="7.18" stroke-linecap="round" stroke-linejoin="round"/>
<path d="M51.2207 72.8516V106.284" stroke="#00858C" stroke-width="7.18" stroke-linecap="round" stroke-linejoin="round"/>
</svg>
