<svg width="49" height="49" viewBox="0 0 49 49" fill="none" xmlns="http://www.w3.org/2000/svg">
<g id="Google">
<path id="back" d="M0.5 24.6875C0.5 11.4327 11.2452 0.6875 24.5 0.6875C37.7548 0.6875 48.5 11.4327 48.5 24.6875C48.5 37.9423 37.7548 48.6875 24.5 48.6875C11.2452 48.6875 0.5 37.9423 0.5 24.6875Z" fill="white"/>
<g id="super-g">
<path id="Shape" d="M24.4997 18.3104C26.4525 18.3104 27.7699 19.154 28.521 19.8588L31.4561 16.9931C29.6534 15.3175 27.3077 14.2891 24.4997 14.2891C20.4321 14.2891 16.9192 16.6233 15.209 20.0206L18.5717 22.6322C19.4152 20.1246 21.7494 18.3104 24.4997 18.3104Z" fill="#EA4335"/>
<path id="Shape_2" d="M34.484 24.9192C34.484 24.0641 34.4147 23.4401 34.2644 22.793H24.5V26.6525H30.2316C30.116 27.6116 29.492 29.0561 28.1053 30.0267L31.3871 32.569C33.3516 30.7547 34.484 28.0854 34.484 24.9192Z" fill="#4285F4"/>
<path id="Shape_3" d="M18.5832 26.7449C18.3636 26.0978 18.2365 25.4044 18.2365 24.688C18.2365 23.9715 18.3636 23.2782 18.5716 22.6311L15.2089 20.0195C14.5041 21.4293 14.0996 23.0124 14.0996 24.688C14.0996 26.3635 14.5041 27.9466 15.2089 29.3564L18.5832 26.7449Z" fill="#FBBC05"/>
<path id="Shape_4" d="M24.4998 35.0892C27.3078 35.0892 29.6651 34.1648 31.3869 32.5701L28.1051 30.0279C27.2269 30.6403 26.0483 31.0679 24.4998 31.0679C21.7496 31.0679 19.4154 29.2536 18.5834 26.7461L15.2207 29.3576C16.9309 32.755 20.4323 35.0892 24.4998 35.0892Z" fill="#34A853"/>
</g>
</g>
</svg>
