<svg width="160" height="159" viewBox="0 0 160 159" fill="none" xmlns="http://www.w3.org/2000/svg">
<g filter="url(#filter0_d_2187_14105)">
<rect x="30.1445" y="17.5625" width="100" height="100" rx="25" fill="url(#paint0_radial_2187_14105)" shape-rendering="crispEdges"/>
<path fill-rule="evenodd" clip-rule="evenodd" d="M70.6904 44.7781C73.1342 44.6656 73.9133 44.6406 80.1383 44.6406C86.3633 44.6406 87.1425 44.6677 89.5842 44.7781C92.0258 44.8885 93.6925 45.2781 95.1508 45.8427C96.6779 46.4198 98.0633 47.3219 99.2092 48.4885C100.376 49.6323 101.276 51.0156 101.851 52.5448C102.418 54.0031 102.805 55.6698 102.918 58.1073C103.03 60.5552 103.055 61.3344 103.055 67.5573C103.055 73.7802 103.028 74.5615 102.918 77.0052C102.807 79.4427 102.418 81.1094 101.851 82.5677C101.276 84.0969 100.374 85.4825 99.2092 86.6281C98.0633 87.7948 96.6779 88.6948 95.1508 89.2698C93.6925 89.8365 92.0258 90.224 89.5883 90.3365C87.1425 90.449 86.3633 90.474 80.1383 90.474C73.9133 90.474 73.1342 90.4469 70.6904 90.3365C68.2529 90.226 66.5863 89.8365 65.1279 89.2698C63.5987 88.6945 62.2131 87.7931 61.0675 86.6281C59.9021 85.4833 58.9999 84.0985 58.4238 82.5698C57.8592 81.1115 57.4717 79.4448 57.3592 77.0073C57.2467 74.5594 57.2217 73.7802 57.2217 67.5573C57.2217 61.3344 57.2488 60.5531 57.3592 58.1115C57.4696 55.6698 57.8592 54.0031 58.4238 52.5448C59.0005 51.0159 59.9034 49.631 61.0696 48.4865C62.2138 47.3213 63.5979 46.4191 65.1258 45.8427C66.5842 45.2781 68.2529 44.8906 70.6904 44.7781ZM89.3967 48.9031C86.98 48.7927 86.255 48.7698 80.1363 48.7698C74.0175 48.7698 73.2925 48.7927 70.8758 48.9031C68.6404 49.0052 67.4279 49.3781 66.6196 49.6927C65.5508 50.1094 64.7863 50.6031 63.9842 51.4052C63.2232 52.1444 62.638 53.045 62.2717 54.0406C61.9571 54.849 61.5842 56.0615 61.4821 58.2969C61.3717 60.7135 61.3488 61.4385 61.3488 67.5573C61.3488 73.676 61.3717 74.401 61.4821 76.8177C61.5842 79.0531 61.9571 80.2656 62.2717 81.074C62.6383 82.0677 63.2238 82.9698 63.9842 83.7094C64.7238 84.4698 65.6258 85.0552 66.6196 85.4219C67.4279 85.7365 68.6404 86.1094 70.8758 86.2115C73.2925 86.3219 74.0154 86.3448 80.1363 86.3448C86.2571 86.3448 86.98 86.3219 89.3967 86.2115C91.6321 86.1094 92.8446 85.7365 93.6529 85.4219C94.7217 85.0052 95.4863 84.5115 96.2883 83.7094C97.0488 82.9698 97.6342 82.0677 98.0008 81.074C98.3154 80.2656 98.6883 79.0531 98.7904 76.8177C98.9008 74.401 98.9238 73.676 98.9238 67.5573C98.9238 61.4385 98.9008 60.7135 98.7904 58.2969C98.6883 56.0615 98.3154 54.849 98.0008 54.0406C97.5842 52.9719 97.0904 52.2073 96.2883 51.4052C95.5492 50.6442 94.6486 50.059 93.6529 49.6927C92.8446 49.3781 91.6321 49.0052 89.3967 48.9031ZM77.2092 74.6219C78.8439 75.3024 80.6641 75.3942 82.359 74.8817C84.0539 74.3692 85.5183 73.2842 86.5021 71.812C87.4859 70.3397 87.928 68.5716 87.753 66.8096C87.578 65.0476 86.7967 63.401 85.5425 62.151C84.743 61.352 83.7763 60.7402 82.712 60.3597C81.6476 59.9791 80.5122 59.8393 79.3873 59.9502C78.2624 60.0612 77.1762 60.4202 76.2067 61.0013C75.2372 61.5825 74.4086 62.3713 73.7806 63.3111C73.1526 64.251 72.7408 65.3183 72.5748 66.4364C72.4089 67.5544 72.4928 68.6954 72.8207 69.7771C73.1486 70.8588 73.7123 71.8544 74.4711 72.6921C75.2299 73.5299 76.1651 74.1889 77.2092 74.6219ZM71.8092 59.2281C72.903 58.1343 74.2015 57.2667 75.6306 56.6747C77.0598 56.0827 78.5915 55.7781 80.1383 55.7781C81.6852 55.7781 83.2169 56.0827 84.6461 56.6747C86.0752 57.2667 87.3737 58.1343 88.4675 59.2281C89.5613 60.3219 90.429 61.6205 91.0209 63.0496C91.6129 64.4787 91.9176 66.0104 91.9176 67.5573C91.9176 69.1042 91.6129 70.6359 91.0209 72.065C90.429 73.4941 89.5613 74.7927 88.4675 75.8865C86.2585 78.0955 83.2624 79.3365 80.1383 79.3365C77.0143 79.3365 74.0182 78.0955 71.8092 75.8865C69.6001 73.6774 68.3591 70.6813 68.3591 67.5573C68.3591 64.4332 69.6001 61.4372 71.8092 59.2281ZM94.53 57.5323C94.8011 57.2766 95.0181 56.9691 95.1681 56.6281C95.3182 56.287 95.3984 55.9193 95.4038 55.5467C95.4092 55.1741 95.3399 54.8043 95.1998 54.459C95.0597 54.1137 94.8517 53.8 94.5883 53.5365C94.3248 53.2731 94.0111 53.0651 93.6658 52.925C93.3205 52.785 92.9507 52.7156 92.5781 52.721C92.2055 52.7264 91.8378 52.8066 91.4967 52.9567C91.1557 53.1067 90.8482 53.3237 90.5925 53.5948C90.0952 54.1219 89.823 54.8221 89.8336 55.5467C89.8441 56.2713 90.1367 56.9633 90.6491 57.4757C91.1615 57.9881 91.8535 58.2807 92.5781 58.2912C93.3027 58.3018 94.0029 58.0296 94.53 57.5323Z" fill="white"/>
</g>
<defs>
<filter id="filter0_d_2187_14105" x="0.977865" y="0.062501" width="158.333" height="158.333" filterUnits="userSpaceOnUse" color-interpolation-filters="sRGB">
<feFlood flood-opacity="0" result="BackgroundImageFix"/>
<feColorMatrix in="SourceAlpha" type="matrix" values="0 0 0 0 0 0 0 0 0 0 0 0 0 0 0 0 0 0 127 0" result="hardAlpha"/>
<feOffset dy="11.6667"/>
<feGaussianBlur stdDeviation="14.5833"/>
<feComposite in2="hardAlpha" operator="out"/>
<feColorMatrix type="matrix" values="0 0 0 0 0.141176 0 0 0 0 0.188235 0 0 0 0 0.298039 0 0 0 0.1 0"/>
<feBlend mode="normal" in2="BackgroundImageFix" result="effect1_dropShadow_2187_14105"/>
<feBlend mode="normal" in="SourceGraphic" in2="effect1_dropShadow_2187_14105" result="shape"/>
</filter>
<radialGradient id="paint0_radial_2187_14105" cx="0" cy="0" r="1" gradientUnits="userSpaceOnUse" gradientTransform="translate(98.5019 38.5078) rotate(96.1411) scale(79.456)">
<stop stop-color="#FDAAC4"/>
<stop offset="1" stop-color="#EC2D69"/>
</radialGradient>
</defs>
</svg>
