<svg width="1080" height="627" viewBox="0 0 1080 627" fill="none" xmlns="http://www.w3.org/2000/svg">
<path d="M0 46.7709V779.156C0 804.604 20.722 825.31 46.1537 825.31H1033.85C1059.31 825.31 1080 804.588 1080 779.156V46.7709C1080 21.323 1059.29 0.617188 1033.85 0.617188H46.1537C20.7058 0.617188 0 21.3392 0 46.7709ZM0.422252 46.7709C0.422252 45.6341 0.471 44.481 0.552199 43.3605C0.584679 43.0032 0.600915 42.646 0.649634 42.2887C0.828273 40.4049 1.13681 38.5535 1.54281 36.7509C1.60777 36.3774 1.70516 36.0363 1.8026 35.6791C1.86756 35.3705 1.96504 35.0457 2.04624 34.7534C2.92319 31.5379 4.15739 28.4523 5.6677 25.5616C5.8301 25.2368 6.00873 24.9283 6.17113 24.6197C6.86944 23.353 7.63277 22.1188 8.46101 20.917C8.65588 20.6409 8.85075 20.3649 9.06187 20.0888C9.43539 19.5853 9.80893 19.0657 10.1987 18.5785C11.2218 17.2793 12.3098 16.045 13.4628 14.8595C13.7227 14.5835 13.9663 14.3398 14.2424 14.08C14.3723 13.9338 14.5185 13.804 14.6321 13.7065C14.7621 13.5766 14.8919 13.4467 15.0056 13.3492C15.3954 12.9595 15.8176 12.586 16.2399 12.2287C16.6134 11.8876 17.0356 11.5466 17.4416 11.2218C17.604 11.0757 17.7826 10.9457 17.945 10.8158C18.0425 10.7346 18.1399 10.6534 18.2536 10.5722C18.6921 10.2312 19.1306 9.89012 19.5853 9.56532C19.634 9.56532 19.6502 9.51662 19.699 9.48414C20.2349 9.11062 20.8033 8.7371 21.3555 8.36359C21.4042 8.33111 21.4691 8.29861 21.5178 8.2499C22.07 7.89262 22.6222 7.55159 23.1906 7.24303C23.7915 6.86951 24.441 6.54474 25.0744 6.20371C25.1718 6.15499 25.2692 6.10626 25.3667 6.0413C25.9026 5.76522 26.4547 5.48911 27.0069 5.24551C27.6565 4.93695 28.3223 4.64464 28.9881 4.3848C29.654 4.10872 30.336 3.84892 31.0181 3.60532C33.0643 2.87452 35.1755 2.28989 37.3517 1.8839C38.0825 1.7215 38.8133 1.6078 39.5603 1.51036C40.2099 1.41292 40.8432 1.33173 41.4928 1.26677C41.5903 1.26677 41.704 1.26679 41.8014 1.23431C42.1262 1.18559 42.4672 1.16934 42.8083 1.16934C43.2143 1.12062 43.6203 1.10435 44.0425 1.08811C44.7408 1.03939 45.4554 1.03939 46.1699 1.03939H1033.86C1034.58 1.03939 1035.29 1.03939 1035.99 1.08811C1036.4 1.08811 1036.8 1.13686 1037.22 1.16934C1037.56 1.16934 1037.91 1.20183 1038.23 1.23431C1038.33 1.23431 1038.44 1.26677 1038.54 1.26677C1039.19 1.31549 1039.82 1.41292 1040.47 1.51036C1041.2 1.6078 1041.93 1.73774 1042.68 1.8839C1044.86 2.28989 1046.97 2.87452 1049.01 3.60532C1049.71 3.84892 1050.38 4.09248 1051.04 4.3848C1051.71 4.66088 1052.38 4.93695 1053.03 5.24551C1053.58 5.48911 1054.13 5.74898 1054.67 6.0413C1054.76 6.09002 1054.86 6.13875 1054.96 6.20371C1055.59 6.54474 1056.22 6.88575 1056.84 7.24303C1057.41 7.55159 1057.96 7.89262 1058.51 8.2499C1058.56 8.29861 1058.63 8.33111 1058.68 8.36359C1059.23 8.7371 1059.8 9.09438 1060.33 9.48414C1060.38 9.53286 1060.4 9.54908 1060.45 9.56532C1060.9 9.89012 1061.34 10.2312 1061.78 10.5722C1061.89 10.6372 1061.99 10.7346 1062.09 10.8158C1062.25 10.9457 1062.43 11.0919 1062.59 11.2218C1063 11.5466 1063.4 11.8876 1063.79 12.2287C1064.21 12.586 1064.62 12.9432 1065.03 13.3492C1065.16 13.4467 1065.29 13.5766 1065.4 13.7065C1065.53 13.8202 1065.68 13.9501 1065.79 14.08C1066.07 14.3398 1066.31 14.5835 1066.57 14.8595C1067.72 16.045 1068.81 17.2793 1069.83 18.5785C1070.22 19.0657 1070.61 19.5853 1070.97 20.0888C1071.17 20.3649 1071.36 20.6572 1071.57 20.917C1072.38 22.1188 1073.15 23.353 1073.86 24.6197C1074.02 24.9283 1074.2 25.2368 1074.36 25.5616C1075.89 28.4523 1077.13 31.5379 1077.99 34.7534C1078.07 35.0457 1078.15 35.3705 1078.23 35.6791C1078.33 36.0363 1078.41 36.3774 1078.49 36.7509C1078.9 38.5535 1079.19 40.3886 1079.38 42.2887C1079.43 42.646 1079.45 43.0032 1079.48 43.3605C1079.56 44.4973 1079.61 45.6341 1079.61 46.7709V779.156C1079.61 780.293 1079.56 781.446 1079.48 782.567C1079.45 782.892 1079.43 783.2 1079.4 783.525C1079.22 785.441 1078.91 787.341 1078.49 789.193C1078.42 789.55 1078.33 789.891 1078.23 790.248C1078.18 790.508 1078.1 790.768 1078.03 791.044C1077.16 794.324 1075.92 797.442 1074.36 800.382C1074.2 800.707 1074.04 801.015 1073.86 801.324C1073.5 801.973 1073.15 802.591 1072.74 803.224C1072.58 803.5 1072.38 803.809 1072.19 804.085C1072.01 804.377 1071.81 804.685 1071.59 804.978C1071.04 805.79 1070.45 806.602 1069.82 807.381C1069.54 807.739 1069.28 808.063 1069.01 808.388C1068.6 808.908 1068.14 809.411 1067.69 809.915C1067.41 810.207 1067.15 810.499 1066.88 810.775C1066.41 811.279 1065.9 811.782 1065.4 812.253C1065.4 812.253 1065.37 812.302 1065.35 812.302C1064.33 813.276 1063.27 814.202 1062.15 815.063C1062.12 815.063 1062.1 815.095 1062.09 815.111C1060.43 816.427 1058.68 817.612 1056.84 818.668C1056.24 819.042 1055.59 819.383 1054.96 819.707C1054.86 819.756 1054.76 819.805 1054.67 819.87C1054.13 820.146 1053.58 820.422 1053.03 820.665C1052.38 820.974 1051.71 821.266 1051.04 821.526C1050.36 821.802 1049.7 822.062 1049.01 822.306C1048.35 822.549 1047.67 822.777 1047 822.972C1046.97 822.972 1046.94 822.972 1046.89 823.004C1046.2 823.215 1045.52 823.394 1044.82 823.572C1044.13 823.751 1043.4 823.913 1042.68 824.043C1041.95 824.206 1041.22 824.32 1040.47 824.417C1039.82 824.514 1039.19 824.596 1038.54 824.661C1038.44 824.661 1038.33 824.661 1038.23 824.693C1037.18 824.79 1036.12 824.855 1035.03 824.888C1034.64 824.888 1034.25 824.888 1033.86 824.888H46.1699C45.7802 824.888 45.3905 824.888 45.0007 824.888C43.9289 824.855 42.8732 824.79 41.8014 824.693C41.704 824.693 41.5903 824.661 41.4928 824.661C40.8432 824.612 40.2099 824.514 39.5603 824.417C38.8295 824.32 38.0987 824.19 37.3517 824.043C36.6371 823.913 35.9063 823.767 35.208 823.572C34.5097 823.41 33.8276 823.215 33.1455 823.004C33.0968 823.004 33.0644 822.972 33.0319 822.972C32.3499 822.777 31.6839 822.549 31.0181 822.306C30.336 822.062 29.6702 821.819 28.9881 821.526C28.3223 821.266 27.6565 820.974 27.0069 820.665C26.4547 820.422 25.9026 820.162 25.3667 819.87C25.2692 819.821 25.1718 819.756 25.0744 819.707C24.441 819.383 23.8077 819.025 23.1906 818.668C21.3555 817.612 19.6015 816.427 17.945 815.111C17.9126 815.079 17.8963 815.063 17.8801 815.063C16.7596 814.186 15.7039 813.276 14.6808 812.302C14.6483 812.302 14.6321 812.253 14.6321 812.253C14.1287 811.766 13.609 811.279 13.1543 810.775C12.8782 810.499 12.6021 810.207 12.3423 809.915C11.8875 809.411 11.4328 808.908 11.0268 808.388C10.7508 808.063 10.4747 807.739 10.2148 807.381C9.59773 806.602 8.99691 805.806 8.44475 804.978C8.23363 804.685 8.03876 804.377 7.84388 804.085C7.649 803.809 7.47032 803.5 7.29168 803.224C6.90193 802.607 6.52841 801.99 6.17113 801.324C5.99249 801.015 5.81386 800.707 5.6677 800.382C4.10867 797.442 2.87442 794.324 1.99747 791.044C1.93251 790.768 1.85132 790.508 1.8026 790.248C1.70516 789.891 1.62401 789.55 1.54281 789.193C1.12057 787.341 0.828257 785.457 0.633379 783.525C0.600899 783.2 0.584679 782.892 0.552199 782.567C0.471 781.43 0.422252 780.293 0.422252 779.156V46.7709Z" fill="#DFDFDF"/>
<rect x="35.7275" y="35.6094" width="1009.97" height="754.667" rx="12.9919" fill="white"/>
<path d="M4.66113 46.7663V779.152C4.66113 802.034 23.272 820.645 46.154 820.645H1033.85C1056.73 820.645 1075.34 802.034 1075.34 779.152V46.7663C1075.34 23.8843 1056.73 5.27344 1033.85 5.27344H46.154C23.272 5.27344 4.66113 23.8843 4.66113 46.7663ZM34.3151 46.7663C34.3151 40.2379 39.6256 34.9112 46.1702 34.9112H1033.86C1040.39 34.9112 1045.7 40.2216 1045.7 46.7663V779.152C1045.7 785.68 1040.39 791.007 1033.86 791.007H46.1702C39.6418 791.007 34.3151 785.696 34.3151 779.152V46.7663Z" fill="#232222"/>
</svg>
