<svg width="101" height="101" viewBox="0 0 101 101" fill="none" xmlns="http://www.w3.org/2000/svg">
<g clip-path="url(#clip0_2187_14096)">
<g clip-path="url(#clip1_2187_14096)">
<rect x="0.572266" y="0.1875" width="100" height="100" rx="25" fill="#0076B2"/>
<path d="M96.1085 -3.23397H4.8954C2.82583 -3.25503 0.832438 -2.45424 -0.64739 -1.00731C-2.12722 0.439623 -2.9726 2.41451 -2.99805 4.484V96.0648C-2.968 98.1312 -2.12059 100.102 -0.641267 101.545C0.83806 102.988 2.82883 103.786 4.8954 103.765H96.1085C98.1782 103.782 100.17 102.978 101.649 101.53C103.128 100.082 103.974 98.108 104.002 96.0385V4.45769C103.965 2.39426 103.115 0.428796 101.637 -1.01149C100.159 -2.45178 98.1722 -3.25048 96.1085 -3.23397Z" fill="url(#paint0_radial_2187_14096)"/>
<path d="M70.8867 26.3439H30.2617C29.34 26.3345 28.4521 26.6912 27.793 27.3357C27.1339 27.9801 26.7574 28.8597 26.7461 29.7814V70.5705C26.7595 71.4909 27.1369 72.3685 27.7958 73.0112C28.4546 73.654 29.3413 74.0096 30.2617 74.0002H70.8867C71.8085 74.0075 72.6958 73.6496 73.3545 73.0048C74.0133 72.3599 74.39 71.4805 74.4023 70.5588V29.7697C74.3859 28.8507 74.0074 27.9753 73.3491 27.3338C72.6908 26.6923 71.8059 26.3366 70.8867 26.3439Z" fill="white"/>
<path d="M33.8027 44.2031H40.877V66.9648H33.8027V44.2031ZM37.3418 32.875C38.1532 32.875 38.9463 33.1157 39.6209 33.5665C40.2955 34.0174 40.8212 34.6582 41.1315 35.4079C41.4418 36.1576 41.5228 36.9824 41.3643 37.7782C41.2057 38.5739 40.8147 39.3047 40.2407 39.8782C39.6667 40.4516 38.9355 40.842 38.1396 40.9998C37.3437 41.1576 36.5189 41.0758 35.7695 40.7648C35.0201 40.4538 34.3798 39.9274 33.9296 39.2524C33.4794 38.5774 33.2395 37.784 33.2402 36.9727C33.2413 35.8855 33.6739 34.8433 34.4429 34.0749C35.212 33.3066 36.2547 32.875 37.3418 32.875ZM45.3145 44.2031H52.0957V47.3281H52.1895C53.1348 45.5391 55.4395 43.6523 58.8809 43.6523C66.0449 43.6367 67.373 48.3516 67.373 54.4648V66.9648H60.2988V55.8906C60.2988 53.2539 60.252 49.8594 56.623 49.8594C52.9941 49.8594 52.377 52.7344 52.377 55.7187V66.9648H45.3145V44.2031Z" fill="#1688C2"/>
</g>
</g>
<defs>
<radialGradient id="paint0_radial_2187_14096" cx="0" cy="0" r="1" gradientUnits="userSpaceOnUse" gradientTransform="translate(63.502 25.7656) rotate(100.69) scale(99.7309 99.7308)">
<stop stop-color="#35BBFF"/>
<stop offset="1" stop-color="#016699"/>
</radialGradient>
<clipPath id="clip0_2187_14096">
<rect x="0.571289" y="0.539062" width="100" height="100" rx="25" fill="white"/>
</clipPath>
<clipPath id="clip1_2187_14096">
<rect x="0.572266" y="0.1875" width="100" height="100" rx="25" fill="white"/>
</clipPath>
</defs>
</svg>
