<svg xmlns="http://www.w3.org/2000/svg" width="36" height="36" viewBox="0 0 36 36" fill="none">
  <path d="M14.1875 22.9574V12.4778C14.1877 12.3467 14.2232 12.2181 14.2902 12.1054C14.3572 11.9927 14.4533 11.9001 14.5685 11.8373C14.6836 11.7745 14.8134 11.7438 14.9445 11.7485C15.0755 11.7532 15.2029 11.793 15.3132 11.8638L23.4653 17.1021C23.5685 17.1682 23.6534 17.2593 23.7123 17.3668C23.7711 17.4744 23.8019 17.595 23.8019 17.7176C23.8019 17.8402 23.7711 17.9608 23.7123 18.0684C23.6534 18.1759 23.5685 18.267 23.4653 18.3331L15.3132 23.5729C15.2029 23.6437 15.0755 23.6835 14.9445 23.6881C14.8134 23.6928 14.6836 23.6621 14.5685 23.5993C14.4533 23.5366 14.3572 23.444 14.2902 23.3313C14.2232 23.2186 14.1877 23.0899 14.1875 22.9588V22.9574Z" fill="white"/>
  <path d="M1.75 17.7205C1.75 8.83896 8.95029 1.63867 17.8319 1.63867C26.7135 1.63867 33.9137 8.83896 33.9137 17.7205C33.9137 26.6021 26.7135 33.8024 17.8319 33.8024C8.95029 33.8024 1.75 26.6021 1.75 17.7205ZM17.8319 3.83165C14.1483 3.83165 10.6156 5.29494 8.01094 7.89962C5.40627 10.5043 3.94298 14.037 3.94298 17.7205C3.94298 21.4041 5.40627 24.9368 8.01094 27.5415C10.6156 30.1461 14.1483 31.6094 17.8319 31.6094C21.5154 31.6094 25.0481 30.1461 27.6528 27.5415C30.2575 24.9368 31.7208 21.4041 31.7208 17.7205C31.7208 14.037 30.2575 10.5043 27.6528 7.89962C25.0481 5.29494 21.5154 3.83165 17.8319 3.83165Z" fill="white"/>
</svg>