<svg xmlns="http://www.w3.org/2000/svg" width="25" height="26" viewBox="0 0 25 26" fill="none">
  <g clip-path="url(#clip0_1463_19291)">
    <mask id="mask0_1463_19291" style="mask-type:luminance" maskUnits="userSpaceOnUse" x="0" y="0" width="25" height="25">
      <path d="M24.4443 0.867188H0.444336V24.8672H24.4443V0.867188Z" fill="white"/>
    </mask>
    <g mask="url(#mask0_1463_19291)">
      <path d="M21.4443 24.8672H19.4443V19.8242C19.4435 19.0402 19.1317 18.2886 18.5774 17.7342C18.023 17.1798 17.2713 16.868 16.4873 16.8672H8.40134C7.61733 16.868 6.86567 17.1798 6.3113 17.7342C5.75693 18.2886 5.44513 19.0402 5.44434 19.8242V24.8672H3.44434V19.8242C3.44592 18.51 3.96869 17.2501 4.89796 16.3208C5.82723 15.3916 7.08714 14.8688 8.40134 14.8672H16.4873C17.8015 14.8688 19.0614 15.3916 19.9907 16.3208C20.92 17.2501 21.4427 18.51 21.4443 19.8242V24.8672Z" fill="#253D4E"/>
      <path d="M12.4443 12.8672C11.2577 12.8672 10.0976 12.5153 9.11092 11.856C8.12422 11.1967 7.35519 10.2597 6.90106 9.16329C6.44694 8.06693 6.32812 6.86053 6.55963 5.69665C6.79114 4.53276 7.36258 3.46366 8.2017 2.62455C9.04081 1.78543 10.1099 1.21399 11.2738 0.982478C12.4377 0.750967 13.6441 0.869787 14.7404 1.32391C15.8368 1.77804 16.7739 2.54707 17.4332 3.53377C18.0924 4.52046 18.4443 5.6805 18.4443 6.86719C18.4427 8.458 17.8101 9.9832 16.6852 11.1081C15.5604 12.233 14.0352 12.8656 12.4443 12.8672ZM12.4443 2.86719C11.6532 2.86719 10.8799 3.10178 10.2221 3.54131C9.56426 3.98084 9.05157 4.60555 8.74882 5.33646C8.44607 6.06736 8.36686 6.87163 8.5212 7.64755C8.67554 8.42347 9.0565 9.13621 9.61591 9.69562C10.1753 10.255 10.8881 10.636 11.664 10.7904C12.4399 10.9447 13.2442 10.8655 13.9751 10.5627C14.706 10.26 15.3307 9.74727 15.7702 9.08947C16.2097 8.43167 16.4443 7.65831 16.4443 6.86719C16.4443 5.80632 16.0229 4.78891 15.2728 4.03876C14.5226 3.28862 13.5052 2.86719 12.4443 2.86719Z" fill="#253D4E"/>
    </g>
  </g>
  <defs>
    <clipPath id="clip0_1463_19291">
      <rect width="25" height="25" fill="white" transform="translate(0 0.5)"/>
    </clipPath>
  </defs>
</svg>