<svg width="1387" height="148" viewBox="0 0 1387 148" fill="none" xmlns="http://www.w3.org/2000/svg">
<g opacity="0.3">
<path d="M0.272001 137V8.19999H56.024C67.5547 8.19999 77.4907 10.1013 85.832 13.904C94.1733 17.584 100.613 22.92 105.152 29.912C109.691 36.904 111.96 45.2453 111.96 54.936C111.96 64.504 109.691 72.784 105.152 79.776C100.613 86.768 94.1733 92.1653 85.832 95.968C77.4907 99.648 67.5547 101.488 56.024 101.488H16.832L30.08 88.056V137H0.272001ZM30.08 91.368L16.832 77.2H54.368C63.568 77.2 70.4373 75.2373 74.976 71.312C79.5147 67.3867 81.784 61.928 81.784 54.936C81.784 47.8213 79.5147 42.3013 74.976 38.376C70.4373 34.4507 63.568 32.488 54.368 32.488H16.832L30.08 18.32V91.368ZM131.037 137V38.008H158.453V65.976L154.589 57.88C157.533 50.888 162.256 45.6133 168.757 42.056C175.258 38.376 183.17 36.536 192.493 36.536V63.032C191.266 62.9093 190.162 62.848 189.181 62.848C188.2 62.7253 187.157 62.664 186.053 62.664C178.202 62.664 171.824 64.9333 166.917 69.472C162.133 73.888 159.741 80.8187 159.741 90.264V137H131.037ZM255.946 138.472C245.396 138.472 236.012 136.264 227.794 131.848C219.698 127.432 213.258 121.421 208.474 113.816C203.812 106.088 201.482 97.3173 201.482 87.504C201.482 77.568 203.812 68.7973 208.474 61.192C213.258 53.464 219.698 47.4533 227.794 43.16C236.012 38.744 245.396 36.536 255.946 36.536C266.372 36.536 275.695 38.744 283.914 43.16C292.132 47.4533 298.572 53.4027 303.234 61.008C307.895 68.6133 310.226 77.4453 310.226 87.504C310.226 97.3173 307.895 106.088 303.234 113.816C298.572 121.421 292.132 127.432 283.914 131.848C275.695 136.264 266.372 138.472 255.946 138.472ZM255.946 114.92C260.73 114.92 265.023 113.816 268.826 111.608C272.628 109.4 275.634 106.272 277.842 102.224C280.05 98.0533 281.154 93.1467 281.154 87.504C281.154 81.7387 280.05 76.832 277.842 72.784C275.634 68.736 272.628 65.608 268.826 63.4C265.023 61.192 260.73 60.088 255.946 60.088C251.162 60.088 246.868 61.192 243.066 63.4C239.263 65.608 236.196 68.736 233.866 72.784C231.658 76.832 230.554 81.7387 230.554 87.504C230.554 93.1467 231.658 98.0533 233.866 102.224C236.196 106.272 239.263 109.4 243.066 111.608C246.868 113.816 251.162 114.92 255.946 114.92ZM371.916 138.472C362.593 138.472 354.191 136.387 346.708 132.216C339.225 127.923 333.276 121.973 328.86 114.368C324.567 106.763 322.42 97.808 322.42 87.504C322.42 77.0773 324.567 68.0613 328.86 60.456C333.276 52.8507 339.225 46.9627 346.708 42.792C354.191 38.6213 362.593 36.536 371.916 36.536C380.257 36.536 387.556 38.376 393.812 42.056C400.068 45.736 404.913 51.3173 408.348 58.8C411.783 66.2827 413.5 75.8507 413.5 87.504C413.5 99.0347 411.844 108.603 408.532 116.208C405.22 123.691 400.436 129.272 394.18 132.952C388.047 136.632 380.625 138.472 371.916 138.472ZM376.884 114.92C381.545 114.92 385.777 113.816 389.58 111.608C393.383 109.4 396.388 106.272 398.596 102.224C400.927 98.0533 402.092 93.1467 402.092 87.504C402.092 81.7387 400.927 76.832 398.596 72.784C396.388 68.736 393.383 65.608 389.58 63.4C385.777 61.192 381.545 60.088 376.884 60.088C372.1 60.088 367.807 61.192 364.004 63.4C360.201 65.608 357.135 68.736 354.804 72.784C352.596 76.832 351.492 81.7387 351.492 87.504C351.492 93.1467 352.596 98.0533 354.804 102.224C357.135 106.272 360.201 109.4 364.004 111.608C367.807 113.816 372.1 114.92 376.884 114.92ZM402.828 137V116.76L403.38 87.32L401.54 58.064V0.471992H430.244V137H402.828ZM498.579 138.472C490.36 138.472 483 136.877 476.499 133.688C470.12 130.499 465.152 125.653 461.595 119.152C458.037 112.528 456.259 104.125 456.259 93.944V38.008H484.963V89.712C484.963 97.9307 486.68 104.003 490.115 107.928C493.672 111.731 498.64 113.632 505.019 113.632C509.435 113.632 513.36 112.712 516.795 110.872C520.229 108.909 522.928 105.965 524.891 102.04C526.853 97.992 527.835 92.9627 527.835 86.952V38.008H556.539V137H529.307V109.768L534.275 117.68C530.963 124.549 526.056 129.763 519.555 133.32C513.176 136.755 506.184 138.472 498.579 138.472ZM630.971 138.472C620.299 138.472 610.792 136.325 602.451 132.032C594.109 127.616 587.547 121.544 582.763 113.816C578.101 106.088 575.771 97.3173 575.771 87.504C575.771 77.568 578.101 68.7973 582.763 61.192C587.547 53.464 594.109 47.4533 602.451 43.16C610.792 38.744 620.299 36.536 630.971 36.536C641.397 36.536 650.475 38.744 658.203 43.16C665.931 47.4533 671.635 53.648 675.315 61.744L653.051 73.704C650.475 69.0427 647.224 65.608 643.299 63.4C639.496 61.192 635.325 60.088 630.787 60.088C625.88 60.088 621.464 61.192 617.539 63.4C613.613 65.608 610.485 68.736 608.155 72.784C605.947 76.832 604.843 81.7387 604.843 87.504C604.843 93.2693 605.947 98.176 608.155 102.224C610.485 106.272 613.613 109.4 617.539 111.608C621.464 113.816 625.88 114.92 630.787 114.92C635.325 114.92 639.496 113.877 643.299 111.792C647.224 109.584 650.475 106.088 653.051 101.304L675.315 113.448C671.635 121.421 665.931 127.616 658.203 132.032C650.475 136.325 641.397 138.472 630.971 138.472ZM733.759 138.472C722.106 138.472 713.029 135.528 706.527 129.64C700.026 123.629 696.775 114.736 696.775 102.96V16.112H725.479V102.592C725.479 106.763 726.583 110.013 728.791 112.344C730.999 114.552 734.005 115.656 737.807 115.656C742.346 115.656 746.21 114.429 749.399 111.976L757.127 132.216C754.183 134.301 750.626 135.896 746.455 137C742.407 137.981 738.175 138.472 733.759 138.472ZM681.503 62.296V40.216H750.135V62.296H681.503Z" fill="#A4A4A4"/>
<path d="M869.694 139.208C859.39 139.208 849.515 137.859 840.07 135.16C830.624 132.339 823.019 128.72 817.254 124.304L827.374 101.856C832.894 105.781 839.395 109.032 846.878 111.608C854.483 114.061 862.15 115.288 869.878 115.288C875.766 115.288 880.488 114.736 884.046 113.632C887.726 112.405 890.424 110.749 892.142 108.664C893.859 106.579 894.718 104.187 894.718 101.488C894.718 98.0533 893.368 95.3547 890.67 93.392C887.971 91.3067 884.414 89.6507 879.998 88.424C875.582 87.0747 870.675 85.848 865.278 84.744C860.003 83.5173 854.667 82.0453 849.27 80.328C843.995 78.6107 839.15 76.4027 834.734 73.704C830.318 71.0053 826.699 67.448 823.878 63.032C821.179 58.616 819.83 52.9733 819.83 46.104C819.83 38.744 821.792 32.0587 825.718 26.048C829.766 19.9147 835.776 15.0693 843.75 11.512C851.846 7.832 861.966 5.992 874.11 5.992C882.206 5.992 890.179 6.97333 898.03 8.93599C905.88 10.776 912.811 13.5973 918.822 17.4L909.622 40.032C903.611 36.5973 897.6 34.0827 891.59 32.488C885.579 30.7707 879.691 29.912 873.926 29.912C868.16 29.912 863.438 30.5867 859.758 31.936C856.078 33.2853 853.44 35.064 851.846 37.272C850.251 39.3573 849.454 41.8107 849.454 44.632C849.454 47.944 850.803 50.6427 853.502 52.728C856.2 54.6907 859.758 56.2853 864.174 57.512C868.59 58.7387 873.435 59.9653 878.71 61.192C884.107 62.4187 889.443 63.8293 894.718 65.424C900.115 67.0187 905.022 69.1653 909.438 71.864C913.854 74.5627 917.411 78.12 920.11 82.536C922.931 86.952 924.342 92.5333 924.342 99.28C924.342 106.517 922.318 113.141 918.27 119.152C914.222 125.163 908.15 130.008 900.054 133.688C892.08 137.368 881.96 139.208 869.694 139.208ZM1001.2 138.472C992.856 138.472 985.558 136.632 979.302 132.952C973.046 129.272 968.139 123.691 964.582 116.208C961.147 108.603 959.43 99.0347 959.43 87.504C959.43 75.8507 961.086 66.2827 964.398 58.8C967.71 51.3173 972.494 45.736 978.75 42.056C985.006 38.376 992.488 36.536 1001.2 36.536C1010.52 36.536 1018.86 38.6827 1026.22 42.976C1033.7 47.1467 1039.59 53.0347 1043.89 60.64C1048.3 68.2453 1050.51 77.2 1050.51 87.504C1050.51 97.9307 1048.3 106.947 1043.89 114.552C1039.59 122.157 1033.7 128.045 1026.22 132.216C1018.86 136.387 1010.52 138.472 1001.2 138.472ZM942.686 172.696V38.008H970.102V58.248L969.55 87.688L971.39 116.944V172.696H942.686ZM996.23 114.92C1001.01 114.92 1005.25 113.816 1008.93 111.608C1012.73 109.4 1015.73 106.272 1017.94 102.224C1020.27 98.0533 1021.44 93.1467 1021.44 87.504C1021.44 81.7387 1020.27 76.832 1017.94 72.784C1015.73 68.736 1012.73 65.608 1008.93 63.4C1005.25 61.192 1001.01 60.088 996.23 60.088C991.446 60.088 987.152 61.192 983.35 63.4C979.547 65.608 976.542 68.736 974.334 72.784C972.126 76.832 971.022 81.7387 971.022 87.504C971.022 93.1467 972.126 98.0533 974.334 102.224C976.542 106.272 979.547 109.4 983.35 111.608C987.152 113.816 991.446 114.92 996.23 114.92ZM1128.83 137V117.68L1126.99 113.448V78.856C1126.99 72.7227 1125.09 67.9387 1121.28 64.504C1117.6 61.0693 1111.9 59.352 1104.17 59.352C1098.9 59.352 1093.68 60.2107 1088.53 61.928C1083.5 63.5227 1079.21 65.7307 1075.65 68.552L1065.35 48.496C1070.74 44.6933 1077.25 41.7493 1084.85 39.664C1092.46 37.5787 1100.18 36.536 1108.04 36.536C1123.12 36.536 1134.84 40.0933 1143.18 47.208C1151.52 54.3227 1155.69 65.424 1155.69 80.512V137H1128.83ZM1098.65 138.472C1090.92 138.472 1084.3 137.184 1078.78 134.608C1073.26 131.909 1069.03 128.291 1066.08 123.752C1063.14 119.213 1061.67 114.123 1061.67 108.48C1061.67 102.592 1063.08 97.44 1065.9 93.024C1068.84 88.608 1073.44 85.1733 1079.7 82.72C1085.96 80.144 1094.11 78.856 1104.17 78.856H1130.48V95.6H1107.3C1100.55 95.6 1095.89 96.704 1093.32 98.912C1090.86 101.12 1089.64 103.88 1089.64 107.192C1089.64 110.872 1091.05 113.816 1093.87 116.024C1096.81 118.109 1100.8 119.152 1105.83 119.152C1110.61 119.152 1114.9 118.048 1118.71 115.84C1122.51 113.509 1125.27 110.136 1126.99 105.72L1131.4 118.968C1129.32 125.347 1125.52 130.192 1120 133.504C1114.48 136.816 1107.36 138.472 1098.65 138.472ZM1230.23 138.472C1219.56 138.472 1210.05 136.325 1201.71 132.032C1193.37 127.616 1186.8 121.544 1182.02 113.816C1177.36 106.088 1175.03 97.3173 1175.03 87.504C1175.03 77.568 1177.36 68.7973 1182.02 61.192C1186.8 53.464 1193.37 47.4533 1201.71 43.16C1210.05 38.744 1219.56 36.536 1230.23 36.536C1240.66 36.536 1249.73 38.744 1257.46 43.16C1265.19 47.4533 1270.89 53.648 1274.57 61.744L1252.31 73.704C1249.73 69.0427 1246.48 65.608 1242.56 63.4C1238.75 61.192 1234.58 60.088 1230.04 60.088C1225.14 60.088 1220.72 61.192 1216.8 63.4C1212.87 65.608 1209.74 68.736 1207.41 72.784C1205.2 76.832 1204.1 81.7387 1204.1 87.504C1204.1 93.2693 1205.2 98.176 1207.41 102.224C1209.74 106.272 1212.87 109.4 1216.8 111.608C1220.72 113.816 1225.14 114.92 1230.04 114.92C1234.58 114.92 1238.75 113.877 1242.56 111.792C1246.48 109.584 1249.73 106.088 1252.31 101.304L1274.57 113.448C1270.89 121.421 1265.19 127.616 1257.46 132.032C1249.73 136.325 1240.66 138.472 1230.23 138.472ZM1338.97 138.472C1327.68 138.472 1317.75 136.264 1309.16 131.848C1300.7 127.432 1294.14 121.421 1289.47 113.816C1284.81 106.088 1282.48 97.3173 1282.48 87.504C1282.48 77.568 1284.75 68.7973 1289.29 61.192C1293.95 53.464 1300.27 47.4533 1308.24 43.16C1316.22 38.744 1325.23 36.536 1335.29 36.536C1344.98 36.536 1353.69 38.6213 1361.42 42.792C1369.27 46.84 1375.46 52.728 1380 60.456C1384.54 68.0613 1386.81 77.2 1386.81 87.872C1386.81 88.976 1386.75 90.264 1386.63 91.736C1386.5 93.0853 1386.38 94.3733 1386.26 95.6H1305.85V78.856H1371.17L1360.13 83.824C1360.13 78.672 1359.09 74.1947 1357 70.392C1354.92 66.5893 1352.03 63.6453 1348.35 61.56C1344.67 59.352 1340.38 58.248 1335.47 58.248C1330.57 58.248 1326.21 59.352 1322.41 61.56C1318.73 63.6453 1315.85 66.6507 1313.76 70.576C1311.68 74.3787 1310.63 78.9173 1310.63 84.192V88.608C1310.63 94.0053 1311.8 98.7893 1314.13 102.96C1316.58 107.008 1319.96 110.136 1324.25 112.344C1328.67 114.429 1333.82 115.472 1339.71 115.472C1344.98 115.472 1349.58 114.675 1353.51 113.08C1357.55 111.485 1361.23 109.093 1364.55 105.904L1379.82 122.464C1375.28 127.616 1369.58 131.603 1362.71 134.424C1355.84 137.123 1347.92 138.472 1338.97 138.472Z" fill="white"/>
</g>
</svg>
