<svg width="24" height="25" viewBox="0 0 24 25" fill="none" xmlns="http://www.w3.org/2000/svg">
<path opacity="0.2" d="M21 12.9688C21 14.7488 20.4722 16.4888 19.4832 17.9689C18.4943 19.4489 17.0887 20.6025 15.4442 21.2837C13.7996 21.9649 11.99 22.1431 10.2442 21.7958C8.49836 21.4486 6.89472 20.5914 5.63604 19.3327C4.37737 18.074 3.5202 16.4704 3.17294 14.7246C2.82567 12.9787 3.0039 11.1691 3.68509 9.5246C4.36628 7.88006 5.51983 6.47446 6.99987 5.48552C8.47991 4.49659 10.22 3.96875 12 3.96875C14.387 3.96875 16.6761 4.91696 18.364 6.60479C20.0518 8.29262 21 10.5818 21 12.9688Z" fill="#24304C"/>
<path d="M13.125 17.8438C13.125 18.0663 13.059 18.2838 12.9354 18.4688C12.8118 18.6538 12.6361 18.798 12.4305 18.8831C12.225 18.9683 11.9988 18.9905 11.7805 18.9471C11.5623 18.9037 11.3618 18.7966 11.2045 18.6392C11.0472 18.4819 10.94 18.2815 10.8966 18.0632C10.8532 17.845 10.8755 17.6188 10.9606 17.4132C11.0458 17.2077 11.19 17.032 11.375 16.9083C11.56 16.7847 11.7775 16.7188 12 16.7188C12.2984 16.7188 12.5845 16.8373 12.7955 17.0483C13.0065 17.2592 13.125 17.5454 13.125 17.8438ZM12 7.71875C9.93188 7.71875 8.25 9.23281 8.25 11.0938V11.4688C8.25 11.6677 8.32902 11.8584 8.46967 11.9991C8.61033 12.1397 8.80109 12.2188 9 12.2188C9.19892 12.2188 9.38968 12.1397 9.53033 11.9991C9.67099 11.8584 9.75 11.6677 9.75 11.4688V11.0938C9.75 10.0625 10.7597 9.21875 12 9.21875C13.2403 9.21875 14.25 10.0625 14.25 11.0938C14.25 12.125 13.2403 12.9688 12 12.9688C11.8011 12.9688 11.6103 13.0478 11.4697 13.1884C11.329 13.3291 11.25 13.5198 11.25 13.7188V14.4688C11.25 14.6677 11.329 14.8584 11.4697 14.9991C11.6103 15.1397 11.8011 15.2188 12 15.2188C12.1989 15.2188 12.3897 15.1397 12.5303 14.9991C12.671 14.8584 12.75 14.6677 12.75 14.4688V14.4012C14.46 14.0872 15.75 12.7231 15.75 11.0938C15.75 9.23281 14.0681 7.71875 12 7.71875ZM21.75 12.9688C21.75 14.8971 21.1782 16.7822 20.1068 18.3856C19.0355 19.9889 17.5127 21.2386 15.7312 21.9766C13.9496 22.7145 11.9892 22.9076 10.0979 22.5314C8.20656 22.1552 6.46928 21.2266 5.10571 19.863C3.74215 18.4995 2.81355 16.7622 2.43735 14.8709C2.06114 12.9796 2.25422 11.0192 2.99218 9.23759C3.73013 7.45601 4.97982 5.93326 6.58319 4.86192C8.18657 3.79058 10.0716 3.21875 12 3.21875C14.585 3.22148 17.0634 4.24959 18.8913 6.07747C20.7192 7.90536 21.7473 10.3837 21.75 12.9688ZM20.25 12.9688C20.25 11.3371 19.7661 9.742 18.8596 8.3853C17.9531 7.02859 16.6646 5.97117 15.1571 5.34674C13.6497 4.72232 11.9909 4.55894 10.3905 4.87727C8.79017 5.1956 7.32016 5.98134 6.16637 7.13512C5.01259 8.2889 4.22685 9.75891 3.90853 11.3593C3.5902 12.9596 3.75358 14.6184 4.378 16.1259C5.00242 17.6334 6.05984 18.9219 7.41655 19.8284C8.77326 20.7349 10.3683 21.2188 12 21.2188C14.1873 21.2163 16.2843 20.3463 17.8309 18.7996C19.3775 17.253 20.2475 15.156 20.25 12.9688Z" fill="#24304C"/>
</svg>
