<svg width="89" height="90" viewBox="0 0 89 90" fill="none" xmlns="http://www.w3.org/2000/svg">
<g clip-path="url(#clip0_2288_13883)">
<path d="M37.5902 41.3014C37.5902 42.6798 36.4664 43.8055 35.088 43.8055C33.7097 43.8053 32.584 42.6798 32.584 41.3014C32.584 39.9231 33.7097 38.7974 35.088 38.7974H37.5902V41.3014ZM38.8521 41.3014C38.8521 39.9231 39.9777 38.7974 41.356 38.7974C42.7343 38.7974 43.86 39.9231 43.86 41.3014V47.5696C43.86 48.9477 42.7343 50.0734 41.356 50.0734C39.9777 50.0734 38.8519 48.9477 38.8519 47.5694V41.3013L38.8521 41.3014ZM41.356 31.2484C39.9777 31.2484 38.8519 30.1246 38.8519 28.7463C38.8521 27.3679 39.9777 26.2422 41.356 26.2422C42.7343 26.2422 43.86 27.3679 43.86 28.7463V31.2484H41.356ZM41.356 32.5103C42.7343 32.5103 43.86 33.6359 43.86 35.0142C43.86 36.3925 42.7343 37.5182 41.356 37.5182H35.0879C33.7099 37.5182 32.584 36.3925 32.584 35.0142C32.584 33.6359 33.7097 32.5101 35.088 32.5101L41.356 32.5103ZM51.409 35.0142C51.409 33.6359 52.5329 32.5101 53.9112 32.5101C55.2895 32.5101 56.4152 33.6359 56.4152 35.0142C56.4152 36.3925 55.2895 37.5182 53.9112 37.5182H51.409V35.0142ZM50.1471 35.0142C50.1471 36.3925 49.0215 37.5182 47.6432 37.5182C46.2649 37.5182 45.1392 36.3925 45.1392 35.0142V28.7461C45.1392 27.3681 46.2649 26.2422 47.6432 26.2422C49.0215 26.2422 50.1473 27.3679 50.1473 28.7463L50.1471 35.0142ZM47.6432 45.0672C49.0215 45.0672 50.1473 46.1911 50.1473 47.5694C50.1473 48.9477 49.0215 50.0734 47.6432 50.0734C46.2649 50.0734 45.1392 48.9477 45.1392 47.5694V45.0672H47.6432ZM47.6432 43.8053C46.2649 43.8053 45.1392 42.6798 45.1392 41.3014C45.1392 39.9231 46.2649 38.7974 47.6432 38.7974H53.9114C55.2895 38.7974 56.4152 39.9231 56.4152 41.3014C56.4152 42.6798 55.2895 43.8055 53.9112 43.8055L47.6432 43.8053Z" fill="#111111"/>
</g>
<g filter="url(#filter0_d_2288_13883)">
<rect x="16.5" y="10.1641" width="56" height="56" rx="14" fill="white" shape-rendering="crispEdges"/>
<g clip-path="url(#clip1_2288_13883)">
<path d="M36.4609 41.8193C36.4609 43.4228 35.1532 44.7324 33.5496 44.7324C31.9459 44.7324 30.6367 43.4228 30.6367 41.8193C30.6367 40.2159 31.9464 38.9062 33.5498 38.9062H36.4612L36.4609 41.8193ZM37.9285 41.8193C37.9285 40.2159 39.2382 38.9062 40.8416 38.9062C42.4451 38.9062 43.7547 40.2157 43.7547 41.8193V49.1114C43.7547 50.7148 42.4453 52.0245 40.8416 52.0245C39.2382 52.0245 37.9285 50.7148 37.9285 49.1114V41.8193Z" fill="#DE1C59"/>
<path d="M40.8416 30.125C39.2382 30.125 37.9285 28.8173 37.9285 27.2137C37.9285 25.61 39.2382 24.3008 40.8416 24.3008C42.4451 24.3008 43.7547 25.6104 43.7547 27.2139V30.1252L40.8416 30.125ZM40.8416 31.5926C42.4451 31.5926 43.7547 32.9022 43.7547 34.5057C43.7547 36.1091 42.4453 37.4188 40.8416 37.4188H33.5496C31.9462 37.4188 30.6367 36.1093 30.6367 34.5057C30.6367 32.9022 31.9464 31.5926 33.5498 31.5926H40.8416Z" fill="#35C5F0"/>
<path d="M52.536 34.5057C52.536 32.9022 53.8437 31.5926 55.4473 31.5926C57.051 31.5926 58.3604 32.9022 58.3604 34.5057C58.3604 36.1091 57.0507 37.4188 55.4473 37.4188H52.536V34.5057ZM51.0684 34.5057C51.0684 36.1091 49.7587 37.4188 48.1553 37.4188C46.5518 37.4188 45.2422 36.1093 45.2422 34.5057V27.2137C45.2422 25.6102 46.5516 24.3008 48.1553 24.3008C49.7587 24.3008 51.0684 25.6104 51.0684 27.2139V34.5057Z" fill="#2EB57D"/>
<path d="M48.1553 46.2C49.7587 46.2 51.0684 47.5077 51.0684 49.1114C51.0684 50.715 49.7587 52.0245 48.1553 52.0245C46.5518 52.0245 45.2422 50.7148 45.2422 49.1114V46.2H48.1553ZM48.1553 44.7324C46.5518 44.7324 45.2422 43.4228 45.2422 41.8193C45.2422 40.2159 46.5516 38.9062 48.1553 38.9062H55.4473C57.0507 38.9062 58.3604 40.2157 58.3604 41.8193C58.3604 43.4228 57.0507 44.7324 55.4473 44.7324H48.1553Z" fill="#EBB02E"/>
</g>
</g>
<defs>
<filter id="filter0_d_2288_13883" x="0.166666" y="0.364062" width="88.6667" height="88.6667" filterUnits="userSpaceOnUse" color-interpolation-filters="sRGB">
<feFlood flood-opacity="0" result="BackgroundImageFix"/>
<feColorMatrix in="SourceAlpha" type="matrix" values="0 0 0 0 0 0 0 0 0 0 0 0 0 0 0 0 0 0 127 0" result="hardAlpha"/>
<feOffset dy="6.53333"/>
<feGaussianBlur stdDeviation="8.16667"/>
<feComposite in2="hardAlpha" operator="out"/>
<feColorMatrix type="matrix" values="0 0 0 0 0.141176 0 0 0 0 0.188235 0 0 0 0 0.298039 0 0 0 0.1 0"/>
<feBlend mode="normal" in2="BackgroundImageFix" result="effect1_dropShadow_2288_13883"/>
<feBlend mode="normal" in="SourceGraphic" in2="effect1_dropShadow_2288_13883" result="shape"/>
</filter>
<clipPath id="clip0_2288_13883">
<rect width="24" height="24" fill="white" transform="translate(32.5 26.1562)"/>
</clipPath>
<clipPath id="clip1_2288_13883">
<rect width="28" height="28" fill="white" transform="translate(30.5 24.1641)"/>
</clipPath>
</defs>
</svg>
