<svg width="39" height="40" viewBox="0 0 39 40" fill="none" xmlns="http://www.w3.org/2000/svg">
<path d="M20.4683 2.9204L24.5169 12.1547C24.6693 12.5021 24.9121 12.8024 25.22 13.024C25.5279 13.2457 25.8896 13.3807 26.2675 13.415L36.1304 14.2993C37.2463 14.4617 37.6915 15.8303 36.8824 16.6184L29.4529 22.8598C28.8513 23.3651 28.5776 24.1592 28.743 24.9262L30.9027 35.0358C31.0922 36.1457 29.9281 36.9939 28.9295 36.4675L20.3209 31.4263C19.9962 31.2356 19.6265 31.1351 19.2501 31.1351C18.8736 31.1351 18.5039 31.2356 18.1792 31.4263L9.57062 36.4645C8.57501 36.9879 7.40794 36.1427 7.59744 35.0328L9.75711 24.9232C9.91954 24.1562 9.64883 23.3621 9.04725 22.8568L1.61472 16.6214C0.808604 15.8363 1.25377 14.4647 2.3667 14.3023L12.2296 13.418C12.6075 13.3837 12.9692 13.2487 13.2771 13.027C13.585 12.8054 13.8278 12.5051 13.9802 12.1577L18.0288 2.92341C18.5312 1.91275 19.9689 1.91275 20.4683 2.9204Z" fill="#FDD835"/>
<path d="M20.181 12.7066L19.4952 5.90273C19.4681 5.52373 19.3899 4.87402 19.9975 4.87402C20.4788 4.87402 20.7404 5.87565 20.7404 5.87565L22.7978 11.338C23.5739 13.4165 23.2551 14.1293 22.5061 14.5504C21.6458 15.0317 20.3765 14.6557 20.181 12.7066Z" fill="#FFFF8D"/>
<path d="M28.6538 22.2524L34.5553 17.6473C34.8471 17.4037 35.3735 17.0157 34.9524 16.5735C34.6185 16.2246 33.7161 16.7269 33.7161 16.7269L28.5516 18.7452C27.0115 19.2776 25.9888 20.0657 25.8986 21.0583C25.7813 22.3818 26.9694 23.4015 28.6538 22.2524Z" fill="#F4B400"/>
</svg>
