<svg width="97" height="80" viewBox="0 0 97 80" fill="none" xmlns="http://www.w3.org/2000/svg">
<path d="M46.9085 49.8905C46.52 50.6915 46.5508 51.6339 46.9886 52.4096L53.209 63.0681C53.7354 63.9718 53.684 65.0992 53.0783 65.9531C52.4965 66.822 51.4667 67.2761 50.4326 67.1276L38.2087 65.5142C37.7823 65.4542 37.3485 65.4967 36.9385 65.633L36.31 65.8621C36.1038 65.974 35.9158 66.1214 35.7599 66.299L27.4482 75.4262C27.0333 75.8664 26.4911 76.1665 25.8946 76.2815C24.4271 76.5221 23.0343 75.548 22.7563 74.0862L20.6616 61.924C20.4949 61.0415 19.9104 60.2957 19.0942 59.9232L7.76155 54.8587C6.81352 54.4344 6.19809 53.5028 6.18255 52.4655C6.15858 51.4338 6.70743 50.4745 7.61027 49.9747L18.5267 44.1016C19.3704 43.6917 19.9459 42.8777 20.0528 41.9455L21.3363 29.6816C21.3724 29.4057 21.45 29.1357 21.5719 28.8864L21.7214 28.648C21.7865 28.4877 21.8754 28.3423 21.9849 28.2104L22.2039 28.0255L22.539 27.7195L23.5153 27.3636C24.4203 27.1362 25.3781 27.3782 26.0633 28.0112L34.9877 36.5019C35.6352 37.125 36.5483 37.3886 37.4273 37.2127L49.5627 34.6837C50.5874 34.4679 51.6465 34.8437 52.307 35.6539C52.9497 36.4731 53.0596 37.589 52.5896 38.5196L46.9085 49.8905Z" fill="url(#paint0_linear_2799_5562)"/>
<g opacity="0.5" filter="url(#filter0_f_2799_5562)">
<path d="M36.2166 43.7236C30.9091 43.7236 26.6016 48.0321 26.6016 53.3387C26.6016 58.6471 30.9091 62.9537 36.2166 62.9537C41.5337 62.9537 45.8316 58.6471 45.8316 53.3387C45.8316 48.0321 41.5337 43.7236 36.2166 43.7236V43.7236Z" fill="#147BFF"/>
</g>
<g filter="url(#filter1_b_2799_5562)">
<path d="M75.2126 48.0986C74.2334 48.6639 73.5943 49.6766 73.5017 50.804L72.4458 66.4418C72.3553 67.7669 71.4978 68.9155 70.2526 69.3816C69.0218 69.8804 67.6155 69.624 66.6343 68.7309L54.9333 58.3241C54.5277 57.9571 54.0414 57.6927 53.5132 57.5438L52.6893 57.3368C52.3928 57.3075 52.0901 57.3284 51.7996 57.4041L36.5576 61.0764C35.8078 61.2435 35.024 61.1726 34.315 60.8684C32.6006 60.0756 31.8306 58.0591 32.58 56.3242L39.0447 42.0456C39.4984 40.9992 39.4154 39.7985 38.8228 38.8254L30.518 25.4254C29.8236 24.3039 29.8405 22.8859 30.5634 21.7843C31.2733 20.6827 32.5339 20.0653 33.8392 20.1832L49.5006 21.788C50.6797 21.9583 51.8648 21.5126 52.6414 20.6088L62.73 8.63067C62.9645 8.36636 63.2385 8.13783 63.5444 7.96257L63.8715 7.8185C64.0541 7.69631 64.2511 7.60683 64.4603 7.54625L64.8223 7.50791L65.3926 7.42496L66.6726 7.7466C67.786 8.15242 68.6204 9.08938 68.8897 10.2431L72.2213 25.5288C72.4579 26.6452 73.2301 27.5729 74.2795 28.0144L88.8393 34.0035C90.0704 34.5068 90.916 35.6566 91.033 36.979C91.125 38.2982 90.4453 39.5496 89.288 40.193L75.2126 48.0986Z" fill="#3EA0FE" fill-opacity="0.35"/>
<path d="M72.8288 66.4679L72.8288 66.4676L73.8843 50.8355C73.8844 50.8345 73.8844 50.8336 73.8845 50.8326C73.9676 49.8321 74.5349 48.9339 75.4026 48.4322C75.4033 48.4318 75.4039 48.4314 75.4045 48.4311L89.4746 40.5285C89.4747 40.5285 89.4747 40.5284 89.4748 40.5284C90.7618 39.8127 91.5183 38.4204 91.416 36.9523L91.416 36.9523L91.4154 36.9451C91.2858 35.4802 90.3492 34.2063 88.9851 33.6484C88.9849 33.6483 88.9847 33.6482 88.9845 33.6482L74.4284 27.6606C74.4279 27.6604 74.4275 27.6602 74.4271 27.66C73.4934 27.2668 72.8071 26.4412 72.5968 25.4492L72.5964 25.447L69.2648 10.1614L69.2648 10.1614L69.2635 10.1559C68.9646 8.87519 68.0385 7.83589 66.804 7.38594C66.7916 7.38142 66.779 7.37753 66.7661 7.37431L65.4861 7.05267C65.4375 7.04046 65.387 7.03788 65.3373 7.0451L64.7744 7.12697L64.4199 7.16453C64.3974 7.16691 64.3752 7.17126 64.3535 7.17754C64.1196 7.24528 63.8962 7.34469 63.6873 7.48018L63.3897 7.61127C63.3773 7.61671 63.3652 7.6228 63.3535 7.62951C63.0087 7.8271 62.7028 8.08298 62.4429 8.37592L62.4428 8.37583L62.4364 8.38338L52.3503 20.3586C52.3499 20.359 52.3495 20.3595 52.3491 20.3599C51.6579 21.1635 50.6037 21.5594 49.5555 21.4081C49.5503 21.4074 49.545 21.4067 49.5398 21.4062L33.8784 19.8013L33.8784 19.8013L33.8738 19.8009C32.4263 19.6702 31.0288 20.3546 30.2416 21.575C29.4374 22.8017 29.4192 24.3799 30.1916 25.6275L30.1917 25.6276L38.4949 39.025C38.4952 39.0254 38.4954 39.0258 38.4956 39.0262C39.0222 39.8917 39.0963 40.9591 38.6937 41.8901C38.6933 41.891 38.6929 41.892 38.6925 41.8929L32.2304 56.1659L32.2303 56.1658L32.2277 56.172C31.3957 58.0979 32.2504 60.3366 34.1538 61.2168L34.1538 61.217L34.1636 61.2212C34.9472 61.5574 35.8132 61.6356 36.6411 61.4511L36.6412 61.4511L36.6476 61.4496L51.8895 57.7773L51.8895 57.7774L51.8964 57.7756C52.1322 57.7142 52.3795 57.6951 52.6244 57.7163L53.4142 57.9147C53.8854 58.0484 54.3169 58.284 54.6757 58.6087L54.6782 58.6109L66.3759 69.0148C66.3764 69.0154 66.377 69.0159 66.3776 69.0164C67.4658 70.0056 69.025 70.2911 70.3919 69.7393C71.7752 69.2194 72.7281 67.942 72.8288 66.4679Z" stroke="url(#paint1_linear_2799_5562)" stroke-width="0.767724" stroke-linecap="round" stroke-linejoin="round"/>
</g>
<defs>
<filter id="filter0_f_2799_5562" x="11.2471" y="28.3692" width="49.9355" height="49.9394" filterUnits="userSpaceOnUse" color-interpolation-filters="sRGB">
<feFlood flood-opacity="0" result="BackgroundImageFix"/>
<feBlend mode="normal" in="SourceGraphic" in2="BackgroundImageFix" result="shape"/>
<feGaussianBlur stdDeviation="7.67724" result="effect1_foregroundBlur_2799_5562"/>
</filter>
<filter id="filter1_b_2799_5562" x="10.8168" y="-11.7681" width="99.4211" height="100.594" filterUnits="userSpaceOnUse" color-interpolation-filters="sRGB">
<feFlood flood-opacity="0" result="BackgroundImageFix"/>
<feGaussianBlur in="BackgroundImageFix" stdDeviation="9.21268"/>
<feComposite in2="SourceAlpha" operator="in" result="effect1_backgroundBlur_2799_5562"/>
<feBlend mode="normal" in="SourceGraphic" in2="effect1_backgroundBlur_2799_5562" result="shape"/>
</filter>
<linearGradient id="paint0_linear_2799_5562" x1="43.07" y1="20.2362" x2="8.51511" y2="71.5312" gradientUnits="userSpaceOnUse">
<stop stop-color="#39AFFD"/>
<stop offset="1" stop-color="#477FFF"/>
</linearGradient>
<linearGradient id="paint1_linear_2799_5562" x1="43.8333" y1="9.16291" x2="68.3144" y2="65.7819" gradientUnits="userSpaceOnUse">
<stop stop-color="white" stop-opacity="0.25"/>
<stop offset="1" stop-color="white" stop-opacity="0"/>
</linearGradient>
</defs>
</svg>
