<svg xmlns="http://www.w3.org/2000/svg" width="19" height="20" viewBox="0 0 19 20" fill="none">
  <path d="M9.58635 17.5038C13.8104 17.5038 17.2665 14.0477 17.2665 9.82366C17.2665 5.5996 13.8104 2.14355 9.58635 2.14355C5.3623 2.14355 1.90625 5.5996 1.90625 9.82366C1.90625 14.0477 5.3623 17.5038 9.58635 17.5038Z" fill="#1393FF"/>
  <path d="M6.32231 9.82366L8.49578 11.9971L12.8504 7.65019" fill="#1393FF"/>
  <path d="M6.32231 9.82366L8.49578 11.9971L12.8504 7.65019M9.58635 17.5038C13.8104 17.5038 17.2665 14.0477 17.2665 9.82366C17.2665 5.5996 13.8104 2.14355 9.58635 2.14355C5.3623 2.14355 1.90625 5.5996 1.90625 9.82366C1.90625 14.0477 5.3623 17.5038 9.58635 17.5038Z" stroke="white" stroke-width="1.15202" stroke-linecap="round" stroke-linejoin="round"/>
</svg>