<svg xmlns="http://www.w3.org/2000/svg" width="90" height="85" viewBox="0 0 90 85" fill="none">
  <path d="M72.1938 13.629L49.3616 7.51115C41.0798 5.29205 34.9585 8.84922 32.7321 17.1583L25.1915 45.3001C22.9286 53.7454 26.4804 59.7777 34.7622 61.9968L57.5944 68.1146C66.0097 70.3695 71.9656 66.8848 74.2285 58.4395L81.7691 30.2977C83.9955 21.9887 80.6091 15.8839 72.1938 13.629Z" fill="url(#paint0_linear_2799_3832)"/>
  <g opacity="0.5" filter="url(#filter0_f_2799_3832)">
    <path d="M66.2257 21.3357L50.6699 17.1676C45.0274 15.6557 40.8569 18.0792 39.3401 23.7402L34.2026 42.9135C32.6609 48.6674 35.0808 52.7772 40.7232 54.2891L56.279 58.4573C62.0125 59.9936 66.0703 57.6194 67.612 51.8656L72.7495 32.6923C74.2663 27.0312 71.9591 22.872 66.2257 21.3357Z" fill="#0062FF"/>
  </g>
  <g filter="url(#filter1_b_2799_3832)">
    <mask id="path-3-outside-1_2799_3832" maskUnits="userSpaceOnUse" x="0" y="18.0986" width="67" height="67" fill="black">
      <rect fill="white" y="18.0986" width="67" height="67"/>
      <path d="M47.5338 19.0986H19.3993C8.39867 19.0986 1 26.8218 1 38.3092V64.8212C1 76.2761 8.39867 83.9993 19.3993 83.9993H47.5338C58.5344 83.9993 65.9007 76.2761 65.9007 64.8212V38.3092C65.9007 26.8218 58.5344 19.0986 47.5338 19.0986"/>
    </mask>
    <path d="M47.5338 19.0986H19.3993C8.39867 19.0986 1 26.8218 1 38.3092V64.8212C1 76.2761 8.39867 83.9993 19.3993 83.9993H47.5338C58.5344 83.9993 65.9007 76.2761 65.9007 64.8212V38.3092C65.9007 26.8218 58.5344 19.0986 47.5338 19.0986" fill="#3EA0FE" fill-opacity="0.35"/>
    <path d="M47.5338 19.8933C47.9727 19.8933 48.3285 19.5375 48.3285 19.0986C48.3285 18.6597 47.9727 18.3039 47.5338 18.3039V19.8933ZM47.5338 18.3039C47.0949 18.3039 46.7391 18.6597 46.7391 19.0986C46.7391 19.5375 47.0949 19.8933 47.5338 19.8933V18.3039ZM47.5338 18.3039H19.3993V19.8933H47.5338V18.3039ZM19.3993 18.3039C13.7061 18.3039 8.89084 20.3069 5.50051 23.8464C2.11303 27.3831 0.205298 32.3933 0.205298 38.3092H1.7947C1.7947 32.7378 3.58631 28.1427 6.64833 24.9459C9.7075 21.752 14.0919 19.8933 19.3993 19.8933V18.3039ZM0.205298 38.3092V64.8212H1.7947V38.3092H0.205298ZM0.205298 64.8212C0.205298 70.7215 2.11339 75.7236 5.50084 79.2559C8.89108 82.7911 13.7061 84.794 19.3993 84.794V83.2046C14.0919 83.2046 9.70726 81.3459 6.648 78.1558C3.58595 74.9628 1.7947 70.3758 1.7947 64.8212H0.205298ZM19.3993 84.794H47.5338V83.2046H19.3993V84.794ZM47.5338 84.794C53.2272 84.794 58.0345 82.791 61.4167 79.2552C64.796 75.7225 66.6954 70.7205 66.6954 64.8212H65.106C65.106 70.3768 63.3222 74.9638 60.2682 78.1565C57.2172 81.346 52.841 83.2046 47.5338 83.2046V84.794ZM66.6954 64.8212V38.3092H65.106V64.8212H66.6954ZM66.6954 38.3092C66.6954 32.3942 64.7964 27.3841 61.4171 23.8472C58.0347 20.307 53.2272 18.3039 47.5338 18.3039V19.8933C52.841 19.8933 57.2169 21.7519 60.2679 24.9451C63.3218 28.1416 65.106 32.7368 65.106 38.3092H66.6954Z" fill="url(#paint1_linear_2799_3832)" mask="url(#path-3-outside-1_2799_3832)"/>
  </g>
  <g filter="url(#filter2_bd_2799_3832)">
    <mask id="path-5-inside-2_2799_3832" fill="white">
      <path d="M29.5962 62.0882C28.8693 62.0882 28.1424 61.8124 27.5875 61.2575L19.887 53.557C18.7772 52.4472 18.7772 50.6495 19.887 49.5429C20.9968 48.4331 22.7913 48.4298 23.9011 49.5397L29.5962 55.2347L42.9917 41.8392C44.1015 40.7294 45.896 40.7294 47.0058 41.8392C48.1156 42.949 48.1156 44.7467 47.0058 45.8565L31.6049 61.2575C31.05 61.8124 30.3231 62.0882 29.5962 62.0882"/>
    </mask>
    <path d="M29.5962 62.0882C28.8693 62.0882 28.1424 61.8124 27.5875 61.2575L19.887 53.557C18.7772 52.4472 18.7772 50.6495 19.887 49.5429C20.9968 48.4331 22.7913 48.4298 23.9011 49.5397L29.5962 55.2347L42.9917 41.8392C44.1015 40.7294 45.896 40.7294 47.0058 41.8392C48.1156 42.949 48.1156 44.7467 47.0058 45.8565L31.6049 61.2575C31.05 61.8124 30.3231 62.0882 29.5962 62.0882" fill="url(#paint2_linear_2799_3832)"/>
    <path d="M19.887 49.5429L19.9993 49.6554L19.9994 49.6553L19.887 49.5429ZM29.5962 55.2347L29.4838 55.3471L29.5962 55.4595L29.7086 55.3471L29.5962 55.2347ZM47.0058 45.8565L46.8934 45.7442L46.8934 45.7442L47.0058 45.8565ZM31.6049 61.2575L31.7172 61.3699L31.7172 61.3699L31.6049 61.2575ZM29.5962 61.9293C28.9095 61.9293 28.2236 61.6688 27.6999 61.1451L27.4751 61.3699C28.0612 61.9559 28.8291 62.2471 29.5962 62.2471V61.9293ZM27.6999 61.1451L19.9994 53.4446L19.7747 53.6694L27.4751 61.3699L27.6999 61.1451ZM19.9994 53.4446C18.9516 52.3968 18.9518 50.6998 19.9993 49.6554L19.7748 49.4303C18.6026 50.5991 18.6029 52.4976 19.7747 53.6694L19.9994 53.4446ZM19.9994 49.6553C21.0474 48.6073 22.7413 48.6045 23.7888 49.652L24.0135 49.4273C22.8414 48.2552 20.9463 48.2589 19.7747 49.4305L19.9994 49.6553ZM23.7888 49.652L29.4838 55.3471L29.7086 55.1223L24.0135 49.4273L23.7888 49.652ZM29.7086 55.3471L43.1041 41.9516L42.8793 41.7268L29.4838 55.1223L29.7086 55.3471ZM43.1041 41.9516C44.1518 40.9038 45.8457 40.9038 46.8934 41.9516L47.1182 41.7268C45.9463 40.5549 44.0512 40.5549 42.8793 41.7268L43.1041 41.9516ZM46.8934 41.9516C47.9411 42.9993 47.9411 44.6964 46.8934 45.7442L47.1182 45.9689C48.29 44.7971 48.29 42.8987 47.1182 41.7268L46.8934 41.9516ZM46.8934 45.7442L31.4925 61.1451L31.7172 61.3699L47.1182 45.9689L46.8934 45.7442ZM31.4925 61.1451C30.9687 61.6688 30.2828 61.9293 29.5962 61.9293V62.2471C30.3633 62.2471 31.1312 61.9559 31.7172 61.3699L31.4925 61.1451Z" fill="url(#paint3_linear_2799_3832)" fill-opacity="0.5" mask="url(#path-5-inside-2_2799_3832)"/>
  </g>
  <defs>
    <filter id="filter0_f_2799_3832" x="17.856" y="0.832523" width="71.2412" height="73.9756" filterUnits="userSpaceOnUse" color-interpolation-filters="sRGB">
      <feFlood flood-opacity="0" result="BackgroundImageFix"/>
      <feBlend mode="normal" in="SourceGraphic" in2="BackgroundImageFix" result="shape"/>
      <feGaussianBlur stdDeviation="7.94702" result="effect1_foregroundBlur_2799_3832"/>
    </filter>
    <filter id="filter1_b_2799_3832" x="-18.8697" y="-0.769135" width="104.638" height="104.636" filterUnits="userSpaceOnUse" color-interpolation-filters="sRGB">
      <feFlood flood-opacity="0" result="BackgroundImageFix"/>
      <feGaussianBlur in="BackgroundImageFix" stdDeviation="9.53642"/>
      <feComposite in2="SourceAlpha" operator="in" result="effect1_backgroundBlur_2799_3832"/>
      <feBlend mode="normal" in="SourceGraphic" in2="effect1_backgroundBlur_2799_3832" result="shape"/>
    </filter>
    <filter id="filter2_bd_2799_3832" x="7.13416" y="29.0863" width="52.6223" height="44.9221" filterUnits="userSpaceOnUse" color-interpolation-filters="sRGB">
      <feFlood flood-opacity="0" result="BackgroundImageFix"/>
      <feGaussianBlur in="BackgroundImageFix" stdDeviation="5.96026"/>
      <feComposite in2="SourceAlpha" operator="in" result="effect1_backgroundBlur_2799_3832"/>
      <feColorMatrix in="SourceAlpha" type="matrix" values="0 0 0 0 0 0 0 0 0 0 0 0 0 0 0 0 0 0 127 0" result="hardAlpha"/>
      <feOffset dx="3.97351" dy="3.97351"/>
      <feGaussianBlur stdDeviation="3.97351"/>
      <feColorMatrix type="matrix" values="0 0 0 0 0.15375 0 0 0 0 0.522433 0 0 0 0 0.9 0 0 0 0.5 0"/>
      <feBlend mode="normal" in2="effect1_backgroundBlur_2799_3832" result="effect2_dropShadow_2799_3832"/>
      <feBlend mode="normal" in="SourceGraphic" in2="effect2_dropShadow_2799_3832" result="shape"/>
    </filter>
    <linearGradient id="paint0_linear_2799_3832" x1="81.7875" y1="16.1996" x2="17.8808" y2="35.5599" gradientUnits="userSpaceOnUse">
      <stop stop-color="#39AFFD"/>
      <stop offset="1" stop-color="#477FFF"/>
    </linearGradient>
    <linearGradient id="paint1_linear_2799_3832" x1="11.3311" y1="26.6596" x2="64.3862" y2="80.7055" gradientUnits="userSpaceOnUse">
      <stop stop-color="white" stop-opacity="0.25"/>
      <stop offset="1" stop-color="white" stop-opacity="0"/>
    </linearGradient>
    <linearGradient id="paint2_linear_2799_3832" x1="45.7974" y1="44.8137" x2="13.7648" y2="46.2397" gradientUnits="userSpaceOnUse">
      <stop stop-color="white"/>
      <stop offset="1" stop-color="white" stop-opacity="0.2"/>
    </linearGradient>
    <linearGradient id="paint3_linear_2799_3832" x1="22.1553" y1="48.0786" x2="46.5958" y2="48.2628" gradientUnits="userSpaceOnUse">
      <stop stop-color="white"/>
      <stop offset="1" stop-color="white" stop-opacity="0"/>
    </linearGradient>
  </defs>
</svg>