<svg width="90" height="85" viewBox="0 0 90 85" fill="none" xmlns="http://www.w3.org/2000/svg">
<g id="Tick">
<g id="Bg">
<path id="Path" d="M72.1938 13.629L49.3616 7.51115C41.0798 5.29205 34.9585 8.84922 32.7321 17.1583L25.1915 45.3001C22.9286 53.7454 26.4804 59.7777 34.7622 61.9968L57.5944 68.1146C66.0097 70.3695 71.9656 66.8848 74.2285 58.4395L81.7691 30.2977C83.9955 21.9887 80.6091 15.8839 72.1938 13.629Z" fill="url(#paint0_linear_2770_1177)"/>
<g id="Path_2" opacity="0.5" filter="url(#filter0_f_2770_1177)">
<path d="M66.2257 21.3357L50.6699 17.1676C45.0274 15.6557 40.8569 18.0792 39.3401 23.7402L34.2026 42.9135C32.6609 48.6674 35.0808 52.7772 40.7232 54.2891L56.279 58.4573C62.0125 59.9936 66.0703 57.6194 67.612 51.8656L72.7495 32.6923C74.2663 27.0312 71.9591 22.872 66.2257 21.3357Z" fill="#0062FF"/>
</g>
</g>
<g id="icon">
<g id="Fill 1" filter="url(#filter1_b_2770_1177)">
<mask id="path-3-outside-1_2770_1177" maskUnits="userSpaceOnUse" x="0" y="18.1006" width="67" height="67" fill="black">
<rect fill="white" y="18.1006" width="67" height="67"/>
<path d="M47.5338 19.1006H19.3993C8.39867 19.1006 1 26.8238 1 38.3112V64.8231C1 76.2781 8.39867 84.0013 19.3993 84.0013H47.5338C58.5344 84.0013 65.9007 76.2781 65.9007 64.8231V38.3112C65.9007 26.8238 58.5344 19.1006 47.5338 19.1006Z"/>
</mask>
<path d="M47.5338 19.1006H19.3993C8.39867 19.1006 1 26.8238 1 38.3112V64.8231C1 76.2781 8.39867 84.0013 19.3993 84.0013H47.5338C58.5344 84.0013 65.9007 76.2781 65.9007 64.8231V38.3112C65.9007 26.8238 58.5344 19.1006 47.5338 19.1006Z" fill="#3EA0FE" fill-opacity="0.35"/>
<path d="M47.5338 19.8953C47.9727 19.8953 48.3285 19.5395 48.3285 19.1006C48.3285 18.6617 47.9727 18.3059 47.5338 18.3059V19.8953ZM47.5338 18.3059C47.0949 18.3059 46.7391 18.6617 46.7391 19.1006C46.7391 19.5395 47.0949 19.8953 47.5338 19.8953V18.3059ZM47.5338 18.3059H19.3993V19.8953H47.5338V18.3059ZM19.3993 18.3059C13.7061 18.3059 8.89084 20.3088 5.50051 23.8484C2.11303 27.385 0.205298 32.3952 0.205298 38.3112H1.7947C1.7947 32.7397 3.58631 28.1446 6.64833 24.9478C9.7075 21.754 14.0919 19.8953 19.3993 19.8953V18.3059ZM0.205298 38.3112V64.8231H1.7947V38.3112H0.205298ZM0.205298 64.8231C0.205298 70.7234 2.11338 75.7255 5.50084 79.2578C8.89108 82.7931 13.7061 84.796 19.3993 84.796V83.2066C14.0919 83.2066 9.70726 81.3478 6.648 78.1577C3.58595 74.9647 1.7947 70.3778 1.7947 64.8231H0.205298ZM19.3993 84.796H47.5338V83.2066H19.3993V84.796ZM47.5338 84.796C53.2272 84.796 58.0345 82.7929 61.4167 79.2571C64.796 75.7244 66.6954 70.7225 66.6954 64.8231H65.106C65.106 70.3787 63.3222 74.9658 60.2682 78.1585C57.2172 81.348 52.841 83.2066 47.5338 83.2066V84.796ZM66.6954 64.8231V38.3112H65.106V64.8231H66.6954ZM66.6954 38.3112C66.6954 32.3962 64.7964 27.3861 61.4171 23.8491C58.0347 20.3089 53.2272 18.3059 47.5338 18.3059V19.8953C52.841 19.8953 57.2169 21.7538 60.2679 24.9471C63.3218 28.1436 65.106 32.7388 65.106 38.3112H66.6954Z" fill="url(#paint1_linear_2770_1177)" mask="url(#path-3-outside-1_2770_1177)"/>
</g>
<g id="Fill 4" filter="url(#filter2_bd_2770_1177)">
<mask id="path-5-inside-2_2770_1177" fill="white">
<path d="M29.5962 62.0921C28.8693 62.0921 28.1424 61.8163 27.5875 61.2614L19.887 53.5609C18.7772 52.4511 18.7772 50.6534 19.887 49.5468C20.9968 48.437 22.7913 48.4338 23.9011 49.5436L29.5962 55.2386L42.9917 41.8431C44.1015 40.7333 45.896 40.7333 47.0058 41.8431C48.1156 42.9529 48.1156 44.7506 47.0058 45.8604L31.6049 61.2614C31.05 61.8163 30.3231 62.0921 29.5962 62.0921Z"/>
</mask>
<path d="M29.5962 62.0921C28.8693 62.0921 28.1424 61.8163 27.5875 61.2614L19.887 53.5609C18.7772 52.4511 18.7772 50.6534 19.887 49.5468C20.9968 48.437 22.7913 48.4338 23.9011 49.5436L29.5962 55.2386L42.9917 41.8431C44.1015 40.7333 45.896 40.7333 47.0058 41.8431C48.1156 42.9529 48.1156 44.7506 47.0058 45.8604L31.6049 61.2614C31.05 61.8163 30.3231 62.0921 29.5962 62.0921Z" fill="url(#paint2_linear_2770_1177)"/>
<path d="M19.887 49.5468L19.9993 49.6594L19.9994 49.6592L19.887 49.5468ZM29.5962 55.2386L29.4838 55.351L29.5962 55.4634L29.7086 55.351L29.5962 55.2386ZM47.0058 45.8604L46.8934 45.7481L47.0058 45.8604ZM31.6049 61.2614L31.7172 61.3738L31.6049 61.2614ZM29.5962 61.9332C28.9095 61.9332 28.2236 61.6727 27.6999 61.149L27.4751 61.3738C28.0612 61.9598 28.8291 62.251 29.5962 62.251V61.9332ZM27.6999 61.149L19.9994 53.4485L19.7747 53.6733L27.4751 61.3738L27.6999 61.149ZM19.9994 53.4485C18.9516 52.4007 18.9518 50.7037 19.9993 49.6594L19.7748 49.4342C18.6026 50.603 18.6029 52.5015 19.7747 53.6733L19.9994 53.4485ZM19.9994 49.6592C21.0474 48.6112 22.7413 48.6084 23.7888 49.6559L24.0135 49.4312C22.8414 48.2591 20.9463 48.2628 19.7747 49.4344L19.9994 49.6592ZM23.7888 49.6559L29.4838 55.351L29.7086 55.1262L24.0135 49.4312L23.7888 49.6559ZM29.7086 55.351L43.1041 41.9555L42.8793 41.7307L29.4838 55.1262L29.7086 55.351ZM43.1041 41.9555C44.1518 40.9077 45.8457 40.9077 46.8934 41.9555L47.1182 41.7307C45.9463 40.5588 44.0512 40.5588 42.8793 41.7307L43.1041 41.9555ZM46.8934 41.9555C47.9411 43.0032 47.9411 44.7003 46.8934 45.7481L47.1182 45.9728C48.29 44.801 48.29 42.9026 47.1182 41.7307L46.8934 41.9555ZM46.8934 45.7481L31.4925 61.149L31.7172 61.3738L47.1182 45.9728L46.8934 45.7481ZM31.4925 61.149C30.9687 61.6727 30.2828 61.9332 29.5962 61.9332V62.251C30.3633 62.251 31.1312 61.9598 31.7172 61.3738L31.4925 61.149Z" fill="url(#paint3_linear_2770_1177)" fill-opacity="0.5" mask="url(#path-5-inside-2_2770_1177)"/>
</g>
</g>
</g>
<defs>
<filter id="filter0_f_2770_1177" x="17.856" y="0.832523" width="71.2412" height="73.9756" filterUnits="userSpaceOnUse" color-interpolation-filters="sRGB">
<feFlood flood-opacity="0" result="BackgroundImageFix"/>
<feBlend mode="normal" in="SourceGraphic" in2="BackgroundImageFix" result="shape"/>
<feGaussianBlur stdDeviation="7.94702" result="effect1_foregroundBlur_2770_1177"/>
</filter>
<filter id="filter1_b_2770_1177" x="-18.8697" y="-0.767181" width="104.638" height="104.636" filterUnits="userSpaceOnUse" color-interpolation-filters="sRGB">
<feFlood flood-opacity="0" result="BackgroundImageFix"/>
<feGaussianBlur in="BackgroundImageFix" stdDeviation="9.53642"/>
<feComposite in2="SourceAlpha" operator="in" result="effect1_backgroundBlur_2770_1177"/>
<feBlend mode="normal" in="SourceGraphic" in2="effect1_backgroundBlur_2770_1177" result="shape"/>
</filter>
<filter id="filter2_bd_2770_1177" x="7.13416" y="29.0902" width="52.6223" height="44.9221" filterUnits="userSpaceOnUse" color-interpolation-filters="sRGB">
<feFlood flood-opacity="0" result="BackgroundImageFix"/>
<feGaussianBlur in="BackgroundImageFix" stdDeviation="5.96026"/>
<feComposite in2="SourceAlpha" operator="in" result="effect1_backgroundBlur_2770_1177"/>
<feColorMatrix in="SourceAlpha" type="matrix" values="0 0 0 0 0 0 0 0 0 0 0 0 0 0 0 0 0 0 127 0" result="hardAlpha"/>
<feOffset dx="3.97351" dy="3.97351"/>
<feGaussianBlur stdDeviation="3.97351"/>
<feColorMatrix type="matrix" values="0 0 0 0 0.15375 0 0 0 0 0.522433 0 0 0 0 0.9 0 0 0 0.5 0"/>
<feBlend mode="normal" in2="effect1_backgroundBlur_2770_1177" result="effect2_dropShadow_2770_1177"/>
<feBlend mode="normal" in="SourceGraphic" in2="effect2_dropShadow_2770_1177" result="shape"/>
</filter>
<linearGradient id="paint0_linear_2770_1177" x1="81.7875" y1="16.1996" x2="17.8808" y2="35.5599" gradientUnits="userSpaceOnUse">
<stop stop-color="#39AFFD"/>
<stop offset="1" stop-color="#477FFF"/>
</linearGradient>
<linearGradient id="paint1_linear_2770_1177" x1="11.3311" y1="26.6616" x2="64.3862" y2="80.7075" gradientUnits="userSpaceOnUse">
<stop stop-color="white" stop-opacity="0.25"/>
<stop offset="1" stop-color="white" stop-opacity="0"/>
</linearGradient>
<linearGradient id="paint2_linear_2770_1177" x1="45.7974" y1="44.8176" x2="13.7648" y2="46.2436" gradientUnits="userSpaceOnUse">
<stop stop-color="white"/>
<stop offset="1" stop-color="white" stop-opacity="0.2"/>
</linearGradient>
<linearGradient id="paint3_linear_2770_1177" x1="22.1553" y1="48.0825" x2="46.5958" y2="48.2667" gradientUnits="userSpaceOnUse">
<stop stop-color="white"/>
<stop offset="1" stop-color="white" stop-opacity="0"/>
</linearGradient>
</defs>
</svg>
