<svg xmlns="http://www.w3.org/2000/svg" width="19" height="20" viewBox="0 0 19 20" fill="none">
  <path d="M9.21916 17.5038C13.4432 17.5038 16.8993 14.0477 16.8993 9.82366C16.8993 5.5996 13.4432 2.14355 9.21916 2.14355C4.99511 2.14355 1.53906 5.5996 1.53906 9.82366C1.53906 14.0477 4.99511 17.5038 9.21916 17.5038Z" fill="#FF6EA1"/>
  <path d="M5.95512 9.82366L8.12859 11.9971L12.4832 7.65019" fill="#FF6EA1"/>
  <path d="M5.95512 9.82366L8.12859 11.9971L12.4832 7.65019M9.21916 17.5038C13.4432 17.5038 16.8993 14.0477 16.8993 9.82366C16.8993 5.5996 13.4432 2.14355 9.21916 2.14355C4.99511 2.14355 1.53906 5.5996 1.53906 9.82366C1.53906 14.0477 4.99511 17.5038 9.21916 17.5038Z" stroke="white" stroke-width="1.15202" stroke-linecap="round" stroke-linejoin="round"/>
</svg>