<svg width="75" height="84" viewBox="0 0 75 84" fill="none" xmlns="http://www.w3.org/2000/svg">
<path d="M50.5192 12.4357L28.1454 6.44066C20.0299 4.26611 14.0314 7.75187 11.8497 15.8941L4.46053 43.471C2.24306 51.7467 5.72358 57.6579 13.8391 59.8324L36.2129 65.8275C44.4593 68.0371 50.2956 64.6223 52.5131 56.3466L59.9023 28.7698C62.084 20.6275 58.7656 14.6453 50.5192 12.4357Z" fill="url(#paint0_linear_2659_7319)"/>
<g opacity="0.5" filter="url(#filter0_f_2659_7319)">
<path d="M25.8318 35.3663C21.2141 34.8751 17.7109 30.9795 17.7109 26.3358C17.7109 21.692 21.2141 17.7964 25.8318 17.3052L32.4721 16.5988C38.2572 15.9834 43.2998 20.518 43.2998 26.3358C43.2998 32.1536 38.2572 36.6882 32.472 36.0727L25.8318 35.3663Z" fill="#0062FF"/>
</g>
<g filter="url(#filter1_b_2659_7319)">
<path d="M67.9966 40.5775C67.9966 29.3226 61.1737 22.6934 49.6274 22.6934H19.3723C7.82296 22.6934 1 29.3226 1 40.5775V65.0908C1 76.3457 7.82296 83.0011 19.3723 83.0011H49.6393C61.1856 83.0011 68.0085 76.3457 68.0085 65.0908C68.0085 53.8359 67.9966 41.8209 67.9966 40.5775Z" fill="#3EA0FE" fill-opacity="0.35"/>
<path d="M68.4069 40.5775C68.4069 34.8663 66.6739 30.2792 63.428 27.1208C60.1836 23.9638 55.4779 22.2831 49.6274 22.2831H19.3723C13.5202 22.2831 8.81385 23.9638 5.56905 27.1208C2.32277 30.2792 0.589744 34.8663 0.589744 40.5775V65.0908C0.589744 70.8019 2.32273 75.3954 5.56874 78.5603C8.81339 81.7238 13.5198 83.4113 19.3723 83.4113H49.6393C55.4903 83.4113 60.1959 81.7238 63.4402 78.5602C66.6858 75.3953 68.4188 70.8019 68.4188 65.0908C68.4188 59.4632 68.4158 53.6456 68.4128 49.0796C68.4114 46.797 68.4099 44.8274 68.4088 43.3505C68.4076 41.8727 68.4069 40.8883 68.4069 40.5775Z" stroke="url(#paint1_linear_2659_7319)" stroke-width="0.820513" stroke-linecap="round" stroke-linejoin="round"/>
</g>
<g filter="url(#filter2_b_2659_7319)">
<path d="M43.8258 54.3505C44.7301 58.4479 48.3364 61.3307 52.4537 61.2557H70.9204C72.6335 61.2557 74.023 59.8424 74.023 58.0955V47.1903C74.0194 45.4472 72.6335 44.0301 70.9204 44.0264H52.1228C47.4394 44.0414 43.6567 47.9138 43.6641 52.686C43.6641 53.2446 43.7192 53.8032 43.8258 54.3505Z" fill="#3EA0FE" fill-opacity="0.35"/>
<path d="M43.4231 54.4289L43.423 54.4289L43.4252 54.4389C44.3703 58.7208 48.1414 61.7427 52.4573 61.666H70.9204C72.8669 61.666 74.4333 60.062 74.4333 58.0955V47.1903L74.4333 47.1895C74.4292 45.2283 72.868 43.6204 70.9213 43.6161H70.9204L52.1228 43.6161L52.1215 43.6161C47.2047 43.6319 43.2463 47.6953 43.2538 52.6863C43.2538 53.2717 43.3116 53.8564 43.4231 54.4289Z" stroke="url(#paint2_linear_2659_7319)" stroke-width="0.820513" stroke-linecap="round" stroke-linejoin="round"/>
</g>
<g filter="url(#filter3_bd_2659_7319)">
<circle cx="52.2782" cy="52.6425" r="3.69231" fill="url(#paint3_linear_2659_7319)"/>
<circle cx="52.2782" cy="52.6425" r="3.61026" stroke="url(#paint4_linear_2659_7319)" stroke-opacity="0.5" stroke-width="0.164103"/>
</g>
<g filter="url(#filter4_bd_2659_7319)">
<path d="M35.8003 40.6809H16.9039C15.4892 40.6751 14.3456 39.5514 14.3516 38.1721C14.3575 36.7986 15.4982 35.6865 16.9039 35.6807H35.8122C37.2268 35.6749 38.3823 36.7899 38.3883 38.1692C38.3943 39.5514 37.2506 40.6751 35.836 40.6809H35.8122H35.8003Z" fill="url(#paint5_linear_2659_7319)"/>
<path d="M35.8122 35.7627L35.8125 35.7627C37.1839 35.7571 38.3005 36.8376 38.3062 38.1695C38.312 39.5044 37.207 40.5932 35.8358 40.5989C35.8358 40.5989 35.8357 40.5989 35.8357 40.5989L35.8122 40.5989H35.8003L16.9042 40.5989C15.5329 40.5932 14.4279 39.5044 14.4336 38.1724C14.4394 36.8459 15.5416 35.7685 16.904 35.7627L35.8122 35.7627Z" stroke="url(#paint6_linear_2659_7319)" stroke-opacity="0.5" stroke-width="0.164103"/>
</g>
<defs>
<filter id="filter0_f_2659_7319" x="1.30068" y="0.132711" width="58.4065" height="52.4065" filterUnits="userSpaceOnUse" color-interpolation-filters="sRGB">
<feFlood flood-opacity="0" result="BackgroundImageFix"/>
<feBlend mode="normal" in="SourceGraphic" in2="BackgroundImageFix" result="shape"/>
<feGaussianBlur stdDeviation="8.20513" result="effect1_foregroundBlur_2659_7319"/>
</filter>
<filter id="filter1_b_2659_7319" x="-19.5126" y="2.18074" width="108.033" height="101.333" filterUnits="userSpaceOnUse" color-interpolation-filters="sRGB">
<feFlood flood-opacity="0" result="BackgroundImageFix"/>
<feGaussianBlur in="BackgroundImageFix" stdDeviation="9.84615"/>
<feComposite in2="SourceAlpha" operator="in" result="effect1_backgroundBlur_2659_7319"/>
<feBlend mode="normal" in="SourceGraphic" in2="effect1_backgroundBlur_2659_7319" result="shape"/>
</filter>
<filter id="filter2_b_2659_7319" x="23.1514" y="23.5137" width="71.3846" height="58.2567" filterUnits="userSpaceOnUse" color-interpolation-filters="sRGB">
<feFlood flood-opacity="0" result="BackgroundImageFix"/>
<feGaussianBlur in="BackgroundImageFix" stdDeviation="9.84615"/>
<feComposite in2="SourceAlpha" operator="in" result="effect1_backgroundBlur_2659_7319"/>
<feBlend mode="normal" in="SourceGraphic" in2="effect1_backgroundBlur_2659_7319" result="shape"/>
</filter>
<filter id="filter3_bd_2659_7319" x="36.2782" y="36.6425" width="31.9982" height="32.0002" filterUnits="userSpaceOnUse" color-interpolation-filters="sRGB">
<feFlood flood-opacity="0" result="BackgroundImageFix"/>
<feGaussianBlur in="BackgroundImageFix" stdDeviation="6.15385"/>
<feComposite in2="SourceAlpha" operator="in" result="effect1_backgroundBlur_2659_7319"/>
<feColorMatrix in="SourceAlpha" type="matrix" values="0 0 0 0 0 0 0 0 0 0 0 0 0 0 0 0 0 0 127 0" result="hardAlpha"/>
<feOffset dx="4.10256" dy="4.10256"/>
<feGaussianBlur stdDeviation="4.10256"/>
<feColorMatrix type="matrix" values="0 0 0 0 0.15375 0 0 0 0 0.522433 0 0 0 0 0.9 0 0 0 0.5 0"/>
<feBlend mode="normal" in2="effect1_backgroundBlur_2659_7319" result="effect2_dropShadow_2659_7319"/>
<feBlend mode="normal" in="SourceGraphic" in2="effect2_dropShadow_2659_7319" result="shape"/>
</filter>
<filter id="filter4_bd_2659_7319" x="2.04387" y="23.373" width="48.6544" height="29.6154" filterUnits="userSpaceOnUse" color-interpolation-filters="sRGB">
<feFlood flood-opacity="0" result="BackgroundImageFix"/>
<feGaussianBlur in="BackgroundImageFix" stdDeviation="6.15385"/>
<feComposite in2="SourceAlpha" operator="in" result="effect1_backgroundBlur_2659_7319"/>
<feColorMatrix in="SourceAlpha" type="matrix" values="0 0 0 0 0 0 0 0 0 0 0 0 0 0 0 0 0 0 127 0" result="hardAlpha"/>
<feOffset dx="4.10256" dy="4.10256"/>
<feGaussianBlur stdDeviation="4.10256"/>
<feColorMatrix type="matrix" values="0 0 0 0 0.15375 0 0 0 0 0.522433 0 0 0 0 0.9 0 0 0 0.5 0"/>
<feBlend mode="normal" in2="effect1_backgroundBlur_2659_7319" result="effect2_dropShadow_2659_7319"/>
<feBlend mode="normal" in="SourceGraphic" in2="effect2_dropShadow_2659_7319" result="shape"/>
</filter>
<linearGradient id="paint0_linear_2659_7319" x1="59.9203" y1="14.9547" x2="-2.70337" y2="33.9263" gradientUnits="userSpaceOnUse">
<stop stop-color="#39AFFD"/>
<stop offset="1" stop-color="#477FFF"/>
</linearGradient>
<linearGradient id="paint1_linear_2659_7319" x1="11.6667" y1="29.7193" x2="60.5997" y2="85.1047" gradientUnits="userSpaceOnUse">
<stop stop-color="white" stop-opacity="0.25"/>
<stop offset="1" stop-color="white" stop-opacity="0"/>
</linearGradient>
<linearGradient id="paint2_linear_2659_7319" x1="48.4967" y1="46.0338" x2="60.4767" y2="67.5355" gradientUnits="userSpaceOnUse">
<stop stop-color="white" stop-opacity="0.25"/>
<stop offset="1" stop-color="white" stop-opacity="0"/>
</linearGradient>
<linearGradient id="paint3_linear_2659_7319" x1="55.447" y1="50.2837" x2="47.2212" y2="50.5519" gradientUnits="userSpaceOnUse">
<stop stop-color="white"/>
<stop offset="1" stop-color="white" stop-opacity="0.2"/>
</linearGradient>
<linearGradient id="paint4_linear_2659_7319" x1="49.3814" y1="51.4274" x2="55.652" y2="51.462" gradientUnits="userSpaceOnUse">
<stop stop-color="white"/>
<stop offset="1" stop-color="white" stop-opacity="0"/>
</linearGradient>
<linearGradient id="paint5_linear_2659_7319" x1="36.6841" y1="36.5836" x2="10.5236" y2="40.6838" gradientUnits="userSpaceOnUse">
<stop stop-color="white"/>
<stop offset="1" stop-color="white" stop-opacity="0.2"/>
</linearGradient>
<linearGradient id="paint6_linear_2659_7319" x1="16.9408" y1="37.358" x2="37.3376" y2="37.8993" gradientUnits="userSpaceOnUse">
<stop stop-color="white"/>
<stop offset="1" stop-color="white" stop-opacity="0"/>
</linearGradient>
</defs>
</svg>
